<svg id="Ebene_2" xmlns="http://www.w3.org/2000/svg" viewBox="0 0 534.3 115.4"><defs><style>.cls-1{stroke-dasharray:0 0 0 0 0 0 0 1.46}.cls-1,.cls-10,.cls-11,.cls-12,.cls-13,.cls-14,.cls-15,.cls-16,.cls-17,.cls-2,.cls-3,.cls-4,.cls-5,.cls-6,.cls-7,.cls-8,.cls-9{fill:none}.cls-1,.cls-10,.cls-11,.cls-13,.cls-14,.cls-15,.cls-16,.cls-17,.cls-2,.cls-3,.cls-4,.cls-5,.cls-6,.cls-7,.cls-8,.cls-9{stroke:#fff;stroke-linecap:round;stroke-linejoin:round;stroke-width:.5px}.cls-18{fill:#009640}.cls-19{fill:#fff}.cls-2{stroke-dasharray:0 0 0 0 0 0 0 1.52}.cls-3{stroke-dasharray:0 0 0 0 0 0 0 1.73}.cls-4{stroke-dasharray:0 0 0 0 0 0 0 1.51}.cls-5{stroke-dasharray:0 0 0 0 0 0 0 1.59}.cls-6{stroke-dasharray:0 0 0 0 0 0 0 1.72}.cls-7{stroke-dasharray:0 0 0 0 0 0 0 1.85}.cls-8{stroke-dasharray:0 0 0 0 0 0 0 1.32}.cls-20{clip-path:url(#clippath-1)}.cls-9{stroke-dasharray:0 0 0 0 0 0 0 1.47}.cls-10{stroke-dasharray:0 0 0 0 0 0 0 1.48}.cls-11{stroke-dasharray:0 0 0 0 0 0 0 1.43}.cls-21{clip-path:url(#clippath)}.cls-13{stroke-dasharray:0 0 0 0 0 0 0 1.49}.cls-14{stroke-dasharray:0 0 0 0 0 0 0 2.04}.cls-15{stroke-dasharray:0 0 0 0 0 0 0 1.53}.cls-16{stroke-dasharray:0 0 0 0 0 0 0 1.69}.cls-17{stroke-dasharray:0 0 0 0 0 0 0 1.15}</style><clipPath id="clippath"><path class="cls-12" d="M0 0h96.9v83.8H0z"/></clipPath><clipPath id="clippath-1"><path class="cls-12" d="M0 0h96.9v83.8H0z"/></clipPath></defs><g id="Ebene_1-2"><g id="b"><g id="c"><g class="cls-21"><path class="cls-19" d="M96.9 41.9c0 23.1-21.7 41.9-48.4 41.9S0 65 0 41.9 21.7 0 48.4 0s48.5 18.8 48.5 41.9m-8.4-19.3C83.6 15 75.9 9.2 67.9 6.1 58 1.8 44.7 1.3 34 4.3 19.5 8.2 5.6 20.2 2.9 35.5c-2.6 14.5 3.9 28 16 36.6l6.4-12 3.4-1.6-8 14.9h24.5c.3 0 .4.8.5 1.1.4 1 1.3 1.4 2.4 1.5 1.1 0 2.3-.3 2.9-1.4.3-.3.3-.9.6-1.2h24.7l-7.8-14.9 3.3 2L78 72.1h.1c3-2.5 6.1-5.3 8.5-8.4 2.5-3.4 4.6-7 5.9-11 3.8-10.1 1.7-21.6-4-30.1M44 75.5l-19.8-.1v.1c2.3 1.2 4.7 2.2 7.1 3 10.4 3.9 24.2 3.8 34.4.1 2.3-1 4.8-1.8 6.9-3l-19.8-.1c-1 1.6-2.8 2.6-4.8 2.5-1.6-.1-3.1-1.1-4-2.5"/></g><g class="cls-20"><path class="cls-19" d="M73.9 18.4c3.1 5.4 2.2 13.4-1.4 18.3-3.8 5.4-9.7 8.9-15.7 10.5l4 9.2h4.5l7.8 14.8H53.9c-1.4 0-3.4-.3-4.2 1.2-.1.4-.3.8-.3 1.3-1.3-.1-.5 0-2.1 0-.1-1-.5-2-1.6-2.3l-2-.2H24l7.7-14.8h4.2c1.7-3 2.9-6.1 4.3-9.2l-.3-.2c-8.1-1.8-16.8-8.6-18.4-17.2-1.6-7.7 2-14.7 7.7-19.3 8.8-6.9 22.9-8 33-3.1 4.6 2.1 9.4 6.3 11.7 11M72 19.7c-4.7-8.9-14.3-13.1-24.1-13-9.5 0-19.2 4.7-23.1 13.1-2.3 4.6-1.6 11.3 1.5 15.4 3.8 5 9 8.3 14.7 9.4 2.3-5.7 4.2-11.6 5.5-17.7-1.7-.3-5.1-1.5-5.1-1.5-2.1-1-4.2-3-5.1-5.2-.9-2.2-.8-4.4.5-6.6 1.9-3.1 4.8-4 6.5-4.6 5.7-1.7 12.5-.7 16.3 4.2 1.4 1.8 2 4.5 1.1 6.7-1.5 4.2-5.9 6.2-10 6.9 1.1 6.2 3.1 12.1 5.4 17.9 5.6-1.5 11-4.8 14.5-9.6 3-4 3.9-10.7 1.4-15.4m-14.2-4.4c-1.1-1.9-3-2.9-4.8-3.6-4.3-1.6-9.7-.9-13.1 2.1-1.5 1.4-2.3 3.3-1.6 5.4 1.4 3.4 5 5.1 8.3 5.3.4-2.3.5-4.9.6-7.1H44v-2.2h3.1V13h2.5v2.2h3v2.2h-3.1c.1 2.3.2 4.9.6 7.2 3.1-.5 6.4-1.8 7.9-5 .9-1.3.6-3.1-.2-4.3m-8.2 17.4c-.5-1.6-.7-3.5-1.2-5.1-1.2 6.1-3 12-5.1 17.7 3.4.4 7.2.5 10.4-.1-1.5-4.1-2.9-8.2-4.1-12.5m5.1 15c-3.9.8-8.4.6-12.4 0l-2.9 6.9c1.2-.8 2.3-1.7 3.7-2.2 4.5-2 10.6-1.1 14.4 1.9-.9-2.3-1.9-4.4-2.8-6.6m2.1 8.8c-1.1-.9-2.2-1.5-3.5-2-4.3-1.5-9.7-.8-13 2 1.6.1 4-.1 6.7 0 1.2.2 1.3 1 1.6 1.6.2-.8.7-1.5 1.7-1.6h6.5zm2.3 2h-8.6c-.6 0-.9.9-1 1.4v10c.6-.6 1-.7 1.7-.7h18.4c-1.8-3.6-3.9-7.1-5.6-10.7h-2l3.1 6.1h-2.5c-1.1-2.1-3.5-6.1-3.5-6.1m-21.3 0s-2.4 4-3.4 6.1h-2.5l3.1-6.2h-2c-1.8 3.6-3.9 7.1-5.6 10.7h18.4c.7 0 1.1.1 1.7.7V60c-.1-.5-.3-1.4-.9-1.4-1.5-.1-8.8-.1-8.8-.1"/></g><path class="cls-19" d="M293.5 88.5s-2.7.1-3.4.6c-.7.4-1.1.6-1.6 1-.4.4-1.4 1-1.4 1s-1.6 1-2.1 1.6-4.7 4.1-5.8 4.1-3.1 1.7-3.5 2.4c-.4.7-.2 1.3-.2 2s1.2 2.4 1.4 3.1.7 1.7.9 2.1 3 5 3.7 5.1 75.5 2 75.5 2l78.8-1.1 73.6-2.4s.6-6.5-1-8.9.4-2.3 1.3-4.3-1.9-5.4-3.2-6.2c-1.3-.8-7.4-4.7-7.4-4.7l-82.2.6-82.1 2.7c0-.1-41.3-.7-41.3-.7z"/><path class="cls-3" d="M291.8 88.7c-.3 0-.6.1-.9.1"/><path class="cls-7" d="M288.6 90.1c.2-.2.5-.4.8-.5"/><path class="cls-3" d="M287.1 91.1s.4-.2.7-.5"/><path class="cls-8" d="M286.1 91.8c-.2.1-.4.3-.5.4"/><path class="cls-11" d="M284 93.6c-1.2 1-3 2.4-4.1 2.9"/><path class="cls-9" d="M277.9 97.2c-.6.4-1.3.9-1.7 1.4"/><path class="cls-14" d="M275.4 101.2v-1"/><path class="cls-6" d="M276.1 102.7c.1.3.3.5.4.8"/><path class="cls-17" d="M277.2 105.3c.1.2.2.4.2.5"/><path class="cls-5" d="M278.5 107.8c.7 1.1 1.6 2.5 2.3 3.2"/><path class="cls-4" d="M282.9 111.6c10 .3 66.1 1.7 73.3 1.9"/><path class="cls-13" d="M358.4 113.4l150.1-3.5"/><path class="cls-2" d="M509.3 108.4c.1-1.8 0-4.9-.7-6.7"/><path class="cls-16" d="M507.7 99.5c0-.8.8-1.1 1.5-2"/><path class="cls-10" d="M509.7 95.3c-.3-1.6-1.7-3.4-2.7-4.3"/><path class="cls-1" d="M505.2 89.7c-1.7-1.1-4.3-2.8-5.5-3.5"/><path class="cls-13" d="M497.5 85.9l-162 3.2"/><path class="cls-15" d="M333.2 89.1l-39-.5"/><path class="cls-19" d="M510 87.2c-2.5-.1-4.9 0-7.4.2-.5 0-1.1.1-1.6.1-.1.3-.1.7-.3 1.4-.5.3-1 .3-1.4.3s-.8-.1-1.2-.2-.9-.2-1.5-.2h-1c.7 1.8-.9 2-3 1.9-.4 0-.8-.1-1.3-.1-.4 0-.9-.1-1.3-.1-1.4-.1-2.8-.1-3.7.4-4.6-.2-10.7.8-15.2.6-.5.2-1 .4-1.5.3-.3 0-.7-.1-1.1-.3-5.8 1.2-13.3 1.4-18.9 1.7-1.1 0-3.1.4-4.4.4-.5 0-.9-.1-1.1-.3-.5.8-1.3.2-2.3.6.2-.1.1-.2-.2-.2-.6 0-2.1.1-2.4.2.2-.2.2-.3.2-.3s-.1.1-.2.1c-.1.1-.2.1-.3.1s-.2-.1-.1-.5c-.3.2-.5.4-.7.7h-1.6c-.3 0-.6-.1-.7-.2-.3 0-.1.2 0 .2-2.9.1-6.7.6-9.7.4-.9-.1-1.8-.2-2.5-.3-.2.3-.7.4-1.9.6-.1-.4.5-.2.5-.5h-.1c-.1 0-.1-.1-.1-.2-.3.1-.4.5-.6.5-.1 0-.2-.1-.3-.2 0 .2.1.2.2.2-1.5 0-3 .4-4.5.3-.7 0-1.4-.2-2.2-.5-.8 1.1-3.5.5-5.6.8v-.2q-.1.1-.2.1c-1.8.3-7.6.2-9.7.6h-.3c-.2 0-.5-.1-.7-.2s-.5-.2-.7-.2-.4 0-.6.2c-.3 0-.2-.3-.2-.5-.4 0-.2.6-.5.7-2.1 0-4-.3-6.5.4-.2-.1-.3-.3-.4-.3s-.2.1-.3.3c-.7-.2.5-.2.3-.7-.2.1-.7.3-1 .3-.4 0-.6-.2-.6-.7-.9.4.5.6.4 1.1-.1.1-.2.1-.3.1-.2 0-.1-.5-.6-.5-2.2 1.1-2.2.1-4.9.8v-.5c-.1.1-.2.1-.3.1s-.1 0-.1-.1c-.3.1.1.2 0 .5h-.4c-.8 0-1.3.1-1.7.2-.4.1-.9.2-1.5.2h-.1c-.6 0-.3-.1-.2-.4-1.1.8-3.6.2-4.6.6-.3-.1 0-.7-.4-.7-.3.1.1.2 0 .5-2.3 0-3.1.5-4.7.4-.4 0-.8-.1-1.3-.2-.2.3-4.1.7-6.4.6-.4 0-.7-.1-1-.1l.2-.3c-3 .8-4.4 0-7.9.7-.7-.1-1.1-.4-1.3-.8-.7.1.5.3.2.7h-1.2c-.3 0-.5-.1-.7-.5-.1.1-.4.5-.5.5s-.1-.1-.1-.4c-1 .5-1.8.6-2.6.5-.3 0-.5 0-.8-.1s-.6-.1-.9-.1h-1.4c.8-.3.3-.4-.2-.7.4.7-1.7.7-2.1.8-.5-.1-.1-.5.2-.5.1 0 .2.1.3.2 0-.1-.2-.2-.2-.4-.4.1-1.1.7-1.7.7-.2 0-.5-.1-.6-.4-.3 0-.2.3-.3.5-.5-.1-.9-.2-1.3-.2-.6 0-1.2.1-2.4 0-.4-.3.3-.5-.4-.7-.8.2.5.5.2.9-.5-.1-.8-.2-1.1-.2-.4 0-.7.1-1.7.2.1-.6-.5-.7 0-1.1-.5.2-1 .3-1 1h-.4c-.3 0-.6-.1-.9-.1-.2-.1-.4-.1-.6-.1s-.4.1-.5.3c-.2-.1-.3-.1-.5-.1h-.3c-.2 0-.3-.1-.3-.5.1 0 .2.1.3.1.5 0 .5-.3.4-.7-.3.4-1.2.3-1 1.2-.1-.1-.3-.2-.5-.2-.1 0-.2 0-.2.1-.3-.1 0-.3.2-.3 0-.3-.7-.1-.7-.4-.6 0 .3.3 0 .7H324c-.3 0-.5-.1-.4-.4h-.1c-.4 0-.2.5-.6.5-.4-.1-.9-.2-1.3-.2-.7 0-1.5 0-2.3.1s-1.6.1-2.3.1c-1-.1-2-.3-2.8-.9 0 .2-.1.2-.2.2.1.3.9.2.6.7-.2 0-.5 0-.8-.1-1-.1-2.2 0-3.3 0h-3.3c-1-.1-2-.2-2.7-.4-.3.1-.5.2-.5.5-.1-.2-.3-.2-.5-.2s-.5 0-.7.1-.5.1-.8.1c-.4 0-.7-.2-1-.6.1.4-1.1.6-1.8.6-.4 0-.6-.1-.3-.3-.4.2-1.1.2-1.4.5-.3-.1-.5-.2-.4-.6-.3 0-.2.3-.3.5-.5-.1-1.1-.2-1.6-.2-1-.1-2.2 0-3.3.1s-2.4.2-3.6.1c-.8 0-1.6-.2-2.5-.4.8-.7-.4-1.4.8-2.1-.1-.6-.6-.8-.6-1.4.3-.2.9-.1 1.2-.3-.2-.1-.3-.4-.3-.6-.2-.1-.3-.2-.5-.2 0-.2.3-.1.5-.2 0-.3.1-.7-.1-1 .6 0 .5-.7 1.1-.7h.1v-.3c-.5.1-.8.3-1 .3s-.4-.2-.7-.6c0 .1-.2.2-.4.2h.1c-.1.5.6.9-.3 1.1.4-.9-.5-.5-.6-.7.3-.1.5-.2.7-.3-.3-.1-.5-.2-.7-.2-.1 0-.3 0-.4.1.5.1.1.5-.2.5 0-.3.1-.7-.2-.7-.7.6.7 1.1.9 1.1-.2.2-.5.3-.7.5.7-1.1-2.1-.7-1.1-1.5 0 .2 0 .4.3.4h.1v-.7h-.1c-.3 0-.5.2-.7.3-.2.2-.3.3-.6.3-.1 0-.2-.1-.4-.2-.2.8.2.5.4.7-.1.2-.3.3-.7.3 0-.6 0-1.2.5-1.4h-.2c-.1 0-.2-.1-.3-.1s-.2-.1-.3-.1-.1 0-.2.2c.5.1-.3.3.2.5h-.2c-.4 0-.3.4-.8.3.3-.3.3-.4.1-.4-.1 0-.3 0-.5.1-.3-.1 0-.7-.4-.7 0 .1-.1.1-.1.1-.1 0-.2-.1-.3-.1-.5.3.3.6-.5.7-.2-.3-1-.3-.4-.7h-.3c-.3 0-.6-.2-.8-.3s-.5-.3-.7-.3-.4 0-.6.2c.3-.2.3-.8-.2-.9-.2.2-.5.2-.7.2-.1 0-.3 0-.5-.1s-.4-.1-.6-.1h-.1c-2 3.4-3.1 6.3-2.3 9.6h.4c.6 0 1.2.3 1.9.5-.5.3.1.3.2.7-.9 0-.8.7-.5 1.2-.5 0-1.4 1.9-1 2.6h-.1c-.6 0-.9 1.1-.8 1.2.2 1 1.5 1.3 3 1.4h3.2c.1-.2.3-.5.6-.7.6.2 1.2.3 1.7.3h2.4c.5 0 .9.1 1.4.3.5-.7 3.3.1 4.6-.5 0 .1-.2.2-.2.3 4.6-.6 6.5.2 9.2-.4.5.1-.4.5.4.6.3-.1-.1-.2 0-.5h1.4c.3 0 .6.1 1 .1.3 0 .6.1 1 .1.8 0 1.6 0 2.7-.2.3.2 1 .2.9.8.5 0 .2-.7.8-.7h.2c0 .3-.3.4-.3.7.8-.6 1.6-.6 2.5-.6.2 0 .5 0 .7.1s.5 0 .7.1c.5 0 1.1 0 1.6-.1-.1.1-.2.3-.3.5.3-.4.7-.5 1.1-.5.3 0 .7.1 1 .2.4.1.7.2 1 .2.4 0 .6-.1.8-.4.3.1.5.2.4.6.6 0 .5-.5 1.1-.5-.1.2-.1.3 0 .3s.3-.1.6-.1.5-.1.7-.1c.3 0 .5.1.5.5.4-.4 1.9-.5 3.3-.4 1 .1 1.9.2 2.5.3.3-.3.9-.3 1.6-.3l1 .1c0 .3-.2.3-.3.5h.1c.2 0 .3-.1.4-.3.1-.1.2-.3.2-.3.1 0 .1.1.2.4 0-.4.2-.4.4-.4h.3c.2 0 .5 0 .7-.2h.1c.4 0 .6.2.5.6.3 0 .2-.3.3-.5.3.2.5.3.6.3s.3-.1.4-.1c.1-.1.2-.1.4-.1s.4.1.6.4c.2-.2 1.1-.4 1.8-.4.4 0 .8.1.9.3 0-.3.4-.3.9-.3h1.1c.5 0 1 0 1.3-.1.3.2.1.3 0 .5.5-.4 1.3-.6 2.1-.6.5 0 1 .2 1.4.4.5-.4.4-.2 1.2-.3-.1.1-.2.3-.3.5 1-.5 2.1-.5 3.2-.5.4 0 .9.1 1.3.1s.9.1 1.3.1c1 .1 2 0 3-.3.2.1.5.2.8.2.4 0 1 0 1.5-.1s1.1-.1 1.7-.1 1.1.1 1.5.4c7.1-.6 21.6-.1 32.4-.1 1.8 0 4.3-.3 5.2-.3h.1c.4.1.8.2 1.2.2h3.1c.6 0 1.1.1 1.6.3.6-.3 1.6-.3 2.1-.6.5.2 1 .3 1.5.3.7 0 1.4 0 2-.1s1.3-.1 1.9-.1 1.2.2 1.6.6c.4 0 .2-.6.5-.7.1.1.2.1.3.1s.2 0 .2-.1c.1 0 .2-.1.4-.1h.2c.1.3.4.4.6.4.4 0 .8-.1 1.2-.2.5-.1.9-.2 1.3-.2s.6.1.9.4c1-.4 2.1-.4 3.2-.4.8 0 1.4.2 1.9.3.3-.3 1.2-.3 2.2-.3.4 0 .9.1 1.4.1s1 .1 1.4.1h.6c.2 0 .2-.3.2-.3.1 0 .3.1.4.2s.3.2.5.2c.9 0 2.9-.4 4.1-.3h.1v.3c.7 0 1.3-.4 1.9-.4h.1c.2 0 .3.1.3.2s.1.2.2.2c1.2 0 2.8-.4 4.2-.4.5 0 .9.1 1.3.3.3 0 .1-.2 0-.2 5.9-.4 12.1-.2 17.7-.5 0-.2-.3-.2-.5-.2 4.9-.2 8.8-1 12.9-.8.5 0 1.1.1 1.6.1-1.5-.6 1.7-.7 2.8-.7h.1c.4 0 .4.4.4.4 3.5-.1 11-.9 15.8-.7.8 0 1.5.1 2.2.2.3.1.5.4.7.4h.2c-.7-.2-.3-.4 0-.4.2 0 .5.1.4.4.7-.3 1.6-.4 2.5-.4 1.2.1 2.5.4 3.8.5.5.1 1.1.1 1.6.1 1.3.1 2.6 0 3.9 0s2.6-.1 4 0c.2 0 .5 0 .7.1.1.1.2.2.3.2-.1-.5-.1-1.1 0-1.6.4-1.7.2-3.7-.2-5.1.2 0 .4.1.6.1 1 .1 1.7-.2 2.4-.4 0 .2 1.5-10-.9-10.1s.7.2-1.3 0m-231.6 3.5c-.7-.4-2.1-.3-2.2-1.2h.1c.3 0 .3.2.1.2.4.3 1.6.3 2 1m1 .9c-.6 0-.1-.8-.5-.9q.1-.1.2-.1c.3 0 .6.7.9.7-.1.2-.5.1-.6.3m-3.3 0c-.2 0-.4-.1-.5-.1.3-.2.6-.3.9-.2.2 0 .5.1.7.2-.2 0-.7.1-1.1.1m1.3.9c-.3 0-.9-.3-.7-.7h.3c.4 0 .6.1.8.2 0 .1-.1.1-.1.1-.1 0-.1-.1-.1-.1-.3 0-.2.3 0 .3 0 .2-.1.2-.2.2m.4 2c-.5-.2-1-.3-1.4-.6 0-.2.1-.2.2-.2s.2.1.3.1.2.1.3.1.1 0 .2-.2c.2.3.3.5.4.8m121-1.1q-.1 0-.2.1c.4.2.5.6.4 1.1.5 0 .6-.3.9-.5h-.2c-.2 0-.4-.2-.5-.3-.1-.2-.2-.4-.4-.4m1.4.5c-.1 0-.2.1-.3.2.1-.1.2-.1.3-.2m9.3.5c-.1 0-.2.2-.3.3h.1c.2 0 .4.1.5.2-.1-.3-.2-.5-.3-.5m-.3.4c-.1 0-.1.1-.1.2 0-.1.1-.2.1-.2m-14.5-.3c-.3 0-.7.1-.7.1h.1c.5 0-.7.5.1.5-.1-.3.3-.5.6-.5.1 0 .2.1.1.1 0 .2-.4.1-.5.3.3 0 .6 0 .9.1.2-.4-.2-.5-.6-.6m-76.2 1.9c0 .3-.1.6-.3.7h.1c.2 0 .3 0 .4-.1.1 0 .2-.1.4-.1h.1c0 .1 0 .3.2.4 0-.2.4-.1.5-.3-.8-.4-.7-.3-1.4-.6"/><path class="cls-19" d="M509.3 104.5c.1 1.2.3 2.2-2 2.2-1.4-.3-2.9-.5-4.3-.6-7.1-.4-14 1.9-21.7 2.1v-.3c-.4 0-.2.6-.5.7-.2 0-.5-.1-.8-.1-1.6-.1-3.6.1-5.7.2-2 .2-4.1.3-5.8.2-.6 0-1.1-.1-1.6-.2-2.5.6-7.6-.1-10.4.5-.4-.1-.7-.1-1.1-.1-1.1-.1-2.4 0-3.7 0-1.3.1-2.7.1-3.9 0-1.1-.1-2.2-.2-3-.6.9.6-1.9.7-3.5.7-2.4.1-8.4.1-11.8-.1-1.3-.1-2.2-.2-2.4-.3-.5.5-1.9.5-3.1.5-.7 0-1.4-.1-1.8-.2-.5.1.3.3-.3.5l-2.7-.3c-1.9-.1-3.8 0-5.6 0s-3.7.1-5.6 0c-1-.1-2-.2-3.1-.3-4.4.6-11.2-.2-15 .4-.5-.6-2.4-.2-3.2-.9-.4 0-.2.2.1.3h.3-2.4c-.7 0-1.3.1-1.9 0-.7 0-1.4-.2-1.9-.5-.2.5-1 .7-1.8.7-.7 0-1.4-.3-1.7-.7-.3.1.1.2 0 .5h-1.6c-.3 0-.6 0-.9-.1s-.5 0-.7-.1c-.7 0-1.4 0-2.5.3-.5-.1.3-.5.3-.7-.7.4-1.6.6-2.5.6-.6 0-1.2-.2-1.7-.4-.2.1 0 .4-.5.4-.1 0-.2 0-.4-.1.6-.3.4-.3 0-.7-.5 0 .3.5-.3.7-.2-.1-.5-.2-.8-.2h-1.1c-.4 0-.6-.1-.6-.5-.3 0-.2.3-.3.5-.3-.3-1.1-.1-1.1-.6-.2.4-1 .4-1.4.6-.7-.2.2-.4 0-.7h-.2c-.5 0-.2.6-.5.7-.9-.1-1.7-.3-2.4-.3-.5 0-.9 0-1.3.1.1-.1.2-.3.3-.5h-.1c-.4 0-.6.2-.6.5-.6-.1-1-.2-1.5-.3-.3 0-.7 0-1.3.1.1-.1 0-.2-.2-.2h-1.1c-.4 0-.9.1-1.4 0-.2 0-.3 0-.5-.1.1-.1.2-.3.3-.5-1.4.4-3 .4-4.6.4-.7 0-1.5-.1-2.2-.2s-1.5-.1-2.3-.2c-1.5-.1-3-.1-4.4.1-.1-.2-.4-.3-.7-.3h-1c-.3 0-.5-.1-.6-.4-.2.1-.4.3-.5.5-.1-.1-.3-.2-.5-.2-.3 0-.6.1-.9.1.1-.3-.2-.3-.2-.5-.5.3-1.5.4-2.5.3-1.3-.1-2.8-.4-3.2-1.2-.5 0 .3.6.4.7-.1.1-.7.2-1.2.2s-1-.2-.9-.4c-.5.2-.8.3-1.1.2-.4 0-.8-.2-1.4-.4.2.2.2.3 0 .3-.1 0-.3-.1-.5-.1s-.5-.1-.7-.1c-.3 0-.5 0-.7.2v-.5c-1.3.3-2.8.3-4.4.2-.8 0-1.6-.1-2.4-.2s-1.5-.1-2.2-.2c-.9-.1-1.7-.1-2.3.1-9.3-.3-19.2-.8-29.4-.7h-.7c-.5 0-1.1-.1-1.4-.1h-1.2c-1 1.7-.6 3.7-2.5 4.8 1.3.4-.8 2.3.5 2.9-.9.2 0 1.5-.6 1.9.9.2 1.6.2 2.2.3h.6c.6 0 1.2.1 2 .3 0-.3.2-.4.5-.5.7.2 1.3.3 1.9.3h1.4c.5 0 1 .1 1.7.2 1.9-.4 7.2.3 8.5-.4 0 .2-.4.4 0 .5.2-.1.6-.1 1.1-.1.3 0 .7.1 1 .2.5-.2.4-.8.7-1 .5.3.5.5.9.6-.2 0-.3.1-.5.2-.4 0-.1-.5-.4-.6 0 .3 0 .6.2.7 1.7-.2 4.5.4 5.3-.6.1.4.3.5.5.5.4 0 1.1-.4 1.5-.4 0 .2-.1.5.2.5.5-.4 1.9-.4 3.3-.4l.9.1 1 .1c1.6.1 3.1.1 3.6-.5 0 .2-.1.4-.3.5.8-.1 1.5-.1 2.1-.1.4 0 .8.1 1.2.1s.8.1 1.1.1c.7 0 1.3 0 1.8-.3.4.3 1 .4 1.7.4 1.6.1 3.8-.3 5.4-.2.5 0 1 0 1.4.1h1.4c1 .1 1.8.1 2.7 0 0-.2.2-.2.5-.2s.6.1 1 .2.7.2.9.2h.1c.3-.4.3-.9 1-1-.1.3-.9.8-.3 1.1 0-.3.6-.1.7-.3-.2-.1-.3-.2-.2-.4.1.1.2.2.3.2s.2-.1.3-.2.2-.2.5-.1h.1c0 .3-.6.2-.5.7.1 0 .3.1.4.1.7 0 .8-.4 1.3-.5 0 .2-.1.5.2.5 1.2-.4 2.8.3 4.2-.5-.2.2 0 .3.3.3.7 0 2-.3 2.2-.6.2.4.8.6 1.4.6s1.1-.1.7-.5c.4 0 .1.5.6.6h.1c.4-.3.8-.3 1.2-.3h.8c.4 0 .7 0 1.1-.3.1.3.5.4.9.4.6 0 1.4-.1 1.8-.1.1-.3-.3-.5 0-.5 1.9.2 2.8.5 4.2.6h.2c0-.3 0-.7.3-.7.1.2.3.3.2.7.5-.3.9-.3 1.3-.3h.9c.4 0 .8 0 1.3-.3.2.2.5.3.8.3s.6 0 .9-.1.6-.1.9-.1c.2 0 .4.1.6.2 0-.4.4-.5.7-.7-.3.2-.3.6.2.7 0-.2 0-.5.3-.5.1.2.3.3.7.4.3 0 .6 0 1-.1.4 0 .8-.1 1.1-.1.4 0 .7.1.9.3 0-.2 0-.5.3-.5.1.2.8.3 1.5.3 1 .1 2.2 0 2.6-.3v.3c.1 0 .2-.3.4-.3 0 .1.6.2 1.3.2 1.1.1 2.6 0 2.9-.2-.1.1.1.1.6.2 1.4.1 4.7-.2 3.6-.6h.2c.4 0 .3.4.7.4.1-.3 0-.7.3-.7-.1.3.1.5.4.5.4 0 1-.2 1.2-.4.3.3 1 .3 1.7.4h.5c.3 0 .5 0 .7.1q-.1-.1.1-.1c.5.2 1.1.3 1.8.4h2.1c7.1 0 17.8.5 25.8-.1 1.2-.1 2.4.1 3.2 0 .6-.1 1-.5 1.5-.4.2 0 .4.1.6.2 1.2-.1 3.3.2 5.5-.2 0 .3.1.5.4.6 0-.1 0-.3.2-.3.5.1 1.1.2 1.7.2 1.8.1 3.7-.1 5.7-.2 1.9-.2 3.9-.3 5.6-.2.6 0 1.2.1 1.7.2.1-.2.4-.4.7-.5 1.7-.3 6.7-.7 8.9-.6h.3c.1 0 0 .3.2.4 1.2 0 2.4-.3 3.7-.5.7-.1 1.5-.1 2.2-.1.2 0 .5 0 .8.1h.8c1.5.1 3.1.1 4.3-.7 0 .3.1.5.4.6 9.6-1 22-.7 31.3-.7.3.1.6.1.9.2 1.3.1 2.6-.4 3.5-.8 2.4.2 5.3.2 7.1.6.2-.2.2-.7.7-.7-.1-2.8-.1-4.3-.5-7.4.2.4.1.4 0 .3M415 108c-.4.1-.6.2-.8.2s-.3-.1-.6-.3c-.2.5.1.6.5.6h.6c0-.2.1-.4.3-.5"/><path class="cls-19" d="M508.3 104.3c-1.4-.1-2.7 0-4 0s-2.5.1-3.9 0c-.5 0-1.1-.1-1.6-.1-1.2-.2-2.5-.4-3.8-.5-.9-.1-1.7 0-2.5.4 0-.3-.2-.4-.4-.4-.4 0-.7.2 0 .4h-.2c-.3 0-.5-.4-.7-.4-.6-.1-1.4-.2-2.2-.2-4.8-.2-12.3.6-15.8.7 0 0 0-.4-.4-.4h-.1c-1.1.1-4.3.1-2.8.7-.5-.1-1.1-.1-1.6-.1-4.1-.2-8 .6-12.9.8.2.1.5 0 .5.2-5.6.3-11.9.1-17.7.5.1 0 .2.2 0 .2-.4-.2-.9-.3-1.3-.3-1.4-.1-3 .4-4.2.4-.2 0-.2-.1-.2-.2s-.1-.2-.3-.2h-.1c-.6 0-1.1.4-1.9.4v-.3h-.1c-1.2-.1-3.2.3-4.1.3-.2 0-.3-.1-.5-.2-.1-.1-.3-.2-.4-.2-.1 0 0 .3-.2.3h-.6c-.5 0-.9-.1-1.4-.1s-.9-.1-1.4-.1c-1-.1-1.9 0-2.2.3-.5-.2-1.1-.3-1.9-.3-1-.1-2.2 0-3.2.4-.2-.3-.5-.4-.9-.4s-.9.1-1.3.2c-.5.1-.9.2-1.2.2s-.5-.1-.6-.4h-.2c-.2 0-.3 0-.4.1s-.2.1-.2.1-.2 0-.3-.1c-.3.1-.1.7-.5.7-.4-.4-1-.6-1.6-.6s-1.2 0-1.9.1-1.4.1-2 .1c-.5 0-1-.1-1.5-.3-.5.3-1.5.3-2.1.6-.5-.2-1-.3-1.6-.3h-3.1c-.5 0-.9-.1-1.2-.2h-.1c-.9-.1-3.4.3-5.2.3-10.8 0-25.3-.5-32.4.1-.4-.3-.9-.4-1.5-.4s-1.1 0-1.7.1-1.1.1-1.5.1c-.3 0-.6-.1-.8-.2-.9.3-1.9.4-3 .3-.4 0-.9-.1-1.3-.1s-.9-.1-1.3-.1c-1.1-.1-2.2 0-3.2.5 0-.2.1-.4.3-.5-.8.1-.7-.1-1.2.3-.4-.2-.9-.4-1.4-.4-.8 0-1.6.2-2.1.6.1-.2.3-.3 0-.5-.3.2-.8.2-1.3.1h-1.1c-.5 0-.9 0-.9.3-.2-.2-.5-.3-.9-.3-.7 0-1.6.2-1.8.4-.3-.3-.5-.4-.6-.4s-.3.1-.4.1c-.1.1-.2.1-.4.1s-.4-.1-.6-.3c0 .2 0 .5-.3.5.1-.3-.1-.5-.5-.6h-.1c-.2.2-.5.2-.7.2h-.3c-.2 0-.4 0-.4.4 0-.3-.1-.4-.2-.4s-.1.1-.2.3c-.1.1-.2.3-.4.3h-.1c0-.2.3-.2.3-.5-.3 0-.6-.1-1-.1-.7 0-1.3 0-1.6.3-.6-.2-1.5-.3-2.5-.3-1.4-.1-2.9 0-3.3.4 0-.4-.2-.5-.5-.5-.2 0-.5 0-.7.1s-.4.1-.6.1-.2-.1 0-.3c-.6 0-.5.5-1.1.5 0-.3-.1-.5-.4-.6-.1.3-.4.4-.8.4-.3 0-.6-.1-1-.2s-.7-.2-1-.2c-.5 0-.9.1-1.1.5 0-.2.1-.4.3-.5-.5.1-1.1.1-1.6.1-.2 0-.5 0-.7-.1-.2 0-.5 0-.7-.1-.9-.1-1.7 0-2.5.6 0-.3.3-.4.3-.7h-.2c-.6 0-.3.7-.8.7.1-.6-.5-.5-.9-.8-1.1.2-1.9.2-2.7.2-.3 0-.6 0-1-.1s-.6-.1-1-.1h-1.4c-.1.3.3.5 0 .5-.8-.1 0-.5-.4-.6-2.7.6-4.6-.2-9.2.4 0-.2.2-.2.2-.3-1.3.6-4.1-.2-4.6.5-.4-.2-.9-.3-1.4-.3H280c-.6 0-1.2-.1-1.7-.3-.2.2-.4.5-.6.7h1.2c.3 0 .9.1 1.4.1h.7c10.2-.2 20.1.4 29.4.7.6-.1 1.4-.1 2.3-.1.7 0 1.4.1 2.2.2s1.6.1 2.4.2c1.5.1 3.1.1 4.4-.2v.5c.1-.2.4-.2.7-.2.2 0 .5.1.7.1s.4.1.5.1c.2 0 .2-.1 0-.3.6.2 1 .4 1.4.4.3 0 .6-.1 1.1-.2-.1.3.4.4.9.4s1.1-.1 1.2-.2c-.1-.2-.9-.7-.4-.7.5.7 1.9 1.1 3.2 1.2 1 .1 2-.1 2.5-.3 0 .2.3.3.2.5.3 0 .6-.1.9-.1.2 0 .3.1.5.2.1-.2.3-.4.5-.5.1.3.3.3.6.4h1c.3 0 .5.1.7.3 1.5-.2 3-.2 4.4-.1.8 0 1.5.1 2.3.2s1.5.1 2.2.2c1.7.1 3.3.1 4.6-.4 0 .2-.1.4-.3.5.1 0 .3 0 .5.1h1.4c.5 0 .8-.1 1.1 0 .2 0 .4.1.2.2.6-.1.9-.2 1.3-.1.5 0 .9.2 1.5.3 0-.4.2-.5.6-.5h.1c0 .2-.1.4-.3.5.4-.1.8-.2 1.3-.1.7 0 1.5.2 2.4.3.3-.1.1-.7.5-.7h.2c.2.3-.7.6 0 .7.5-.2 1.2-.2 1.4-.6 0 .5.8.3 1.1.6 0-.2 0-.5.3-.5 0 .4.3.5.6.5h1.1c.3 0 .5.1.8.2.6-.2-.2-.7.3-.7.3.4.5.4 0 .7.2 0 .3.1.4.1.5 0 .3-.2.5-.4.4.2 1 .4 1.7.4.9.1 1.8-.1 2.5-.6 0 .2-.8.6-.3.7 1.1-.3 1.8-.4 2.5-.3.2 0 .5 0 .7.1.3 0 .5 0 .9.1h1.6c.1-.3-.3-.5 0-.5.3.4 1 .6 1.7.7.8 0 1.5-.2 1.8-.7.5.4 1.1.5 1.9.5h1.9c.7 0 1.4-.1 2.1 0-.3-.1-.5-.4-.1-.3.8.7 2.6.3 3.2.9 3.7-.7 10.6.2 15-.4 1 .2 2.1.3 3.1.3 1.9.1 3.7 0 5.6 0s3.7-.1 5.6 0c.9.1 1.8.1 2.7.3.5-.2-.3-.4.3-.5.4.1 1.1.2 1.8.2 1.2.1 2.6 0 3.1-.5.2.1 1.1.2 2.4.3 3.4.2 9.5.1 11.8.1 1.6 0 4.3-.1 3.5-.7.8.3 1.8.5 3 .6s2.6 0 3.9 0 2.6-.1 3.7 0c.4 0 .8.1 1.1.1 2.8-.6 7.9 0 10.4-.5.5.1 1 .2 1.6.2 1.6.1 3.7-.1 5.8-.2s4.1-.3 5.7-.2c.3 0 .6 0 .8.1.3-.1.1-.7.5-.7v.3c7.7-.2 14.6-2.4 21.7-2.1 1.4.1 2.9.3 4.4.6 2.3 0 2.2-1 2-2.2-.1-.1-.2-.1-.3-.2-1-1.4-1.2-1.4-1.4-1.4m-93.3 3.8c-.1.1-.2.3-.3.5h-.6c-.4 0-.7-.1-.5-.6.2.2.4.3.6.3.2.1.4-.1.8-.2m-28 1h.3-.3m1.3 6h.1-.1m109.6-34.6c-.4.6-1.3.2-2.8.4-.9-.3-1.9-.5-3-.5-2.6-.1-5.5.4-8.3.6-3.3.3-6.9.3-9.9.5.2.1.5.3.2.4-.6-.4-1.4-.6-2.1-.6-1.3-.1-2.4.3-2.5.7-.1-.3-.8-.5-1.5-.5-.9-.1-1.8.1-1.5.5-.4-.2-.9-.3-1.3-.4-.6 0-1.1.2-1 .6-.1-.3-.2-.4-.4-.4s-.4.1-.6.1c-.2.1-.4.2-.5.1-.1 0-.3-.1-.3-.3-1.7.8-3.9-.3-5.8.8-.1-.3-.4-.4-.7-.5-.3 0-.6.1-.9.1s-.6.1-.8.1-.3-.1-.3-.3c-.2.5-.7.2-.7.7-.4-.2-1-.3-1.6-.3-1.3-.1-2.9.2-3.3.9-.2-.4-.4-.7-1.1-.8-.5.2-.8.4-1.2.7 0-.4.5-.5-.2-.7-.5.7-1.6 0-1.6.6-.4-.1-.8-.2-1.2-.2-.5 0-1 0-1.3.2-.2-.2-.6-.4-1-.4-.5 0-1 .1-1.4.4-.2-.2-.1-.6-.5-.6h-.2c-.4.7-.9-.1-1.6.8 0-.3.1-.5.3-.7-.1 0-.2 0-.3-.1-.7 0-.4.7-.6.7-.2-.4-.7-.7-1.3-.8-.7.2-.9.9-1 1.2 0-.2-.4-.2-.4-.4-.2-.3.7-.6 0-.7-.1.3-.5.3-1 .3-.4 0-.8-.1-1.2-.2-.4-.1-.9-.1-1.2-.2 0 .4-.5.4-.7.7-.1-.3-.7-.5-1.4-.5-.9-.1-2.1.1-2.9.4-.4-.2-.8-.3-1.3-.3-1-.1-2.1.2-2.9.6v.1h-.1l-.6.3c0-.3-.6-.2-.4-.6h.1c.4 0 .4.3.6.4 0-.1.2-.2.4-.2h.1c0-.3-.2-.4-.5-.4-.6 0-1.6.4-2 .5 0-.2.2-.2.2-.3-.8 0-1.1.2-1.2.5h-.3c-.3 0-.6 0-.8-.1s-.5 0-.8-.1c-1-.1-1.7 0-2.5.4 0-.1 0-.3-.2-.4-.9.2-1.5.3-2.1.2-.2 0-.5 0-.7-.1s-.5-.1-.7-.1c-.5 0-1 0-1.6.1 0-.2.1-.5-.2-.5-1 .3-2 .4-2.5.4 0-.2.4-.1.5-.3-2.3-.1-4.1.3-6.1.2-.6 0-1.1-.1-1.8-.2.1.5-.5.3-.7.5 0-.2-.2-.2-.4-.2s-.6 0-1 .1-.8.1-1.1.1-.5-.1-.7-.2c-.5.2.3.4-.3.5h-.2c-.2 0-.2-.1-.2-.2s0-.2-.2-.2h-.2c0 .2 0 .5-.4.5h-.1c-.4 0-.1-.5-.4-.6 0 .2 0 .5-.4.5h-.1c0-.2.4-.4 0-.5-.5.5-.1.2-.7.7.2-.6-1-.2-1.1-.6 0 .2 0 .5-.3.5-.3-.2-.6-.3-.9-.3h-.7c-.2 0-.5.1-.8 0-.3 0-.6-.1-1-.3-1.1 1.2-3.6.2-4.6 1-.1-.2-.4-.3-.6-.3s-.5.1-.8.2-.5.2-.7.2-.3-.1-.4-.3c-.7.1-.2.6-.5.7-.3-.5-.9-.7-1.6-.7-1-.1-2.2.2-2.7.7-.8-.3.2-.3-.2-.5h-.1c-.4 0-.2.5-.6.5 0-.3-.1-.5-.4-.6-.3.4.6.7 0 .7 0-.3-.3-.5-.6-.5-.5 0-1.2.2-1.4.4 0-.3-.1-.5-.4-.6-2.3.5-3.8.5-5.8.4-.5 0-1-.1-1.6-.1-.2.3 0 .3.2.4h.4c.2 0 .3.1.3.2-.3 0-.5.1-.7.1-.4 0-.5-.1-.6-.3-.1-.1-.2-.2-.6-.3h-.4c-.1 0-4.5.2-4.4.7-.1-.3-.3-.4-.5-.4-.4 0-1 .4-1.4.5 0-.3-.2-.4-.5-.4s-.6.1-.9.1c-.3.1-.6.1-.9.1-.2 0-.3-.1-.4-.2-.1.3.3.5 0 .5-.1-.3-.4-.4-.6-.4s-.5 0-.8.1-.6.1-.8.1-.4-.1-.5-.3c-.4.2-1.7.4-2.5.4-.3 0-.6-.1-.7-.2 0 .2 0 .5-.3.5-.2-.1-.5-.2-.8-.2-.6 0-1.3.1-2.2.1s-1.8.2-2.7.1h-.5c0 .3 0 .7-.3.7-.1-.4-.3-.5-.6-.5h-1.1c.3 0 .2.5 0 .5-.1-.3-.4-.5-.7-.5s-.6.1-1 .2-.7.2-1 .2c-.2 0-.5-.1-.6-.3-.2.3-.5.3-.7.3-.1 0-.3 0-.4-.1s-.2 0-.3-.1c-.2 0-.4.1-.4.4-.1-.3-.3-.4-.6-.4-.2 0-.4.1-.7.1s-.5.1-.7.1c-.1 0-.3 0-.4-.1-.1.3-.8.7-1.1.7q-.1 0-.1-.1c.1-.5 1-.4 1.2-.8-1 .1-1.9.2-2.6.6-.3-.1-.6-.2-1-.2-1.9-.1-4.7.5-6.5.5-.3-.2-1-.4-1.8-.4-1.2-.1-2.6.1-3 .5-.4-.2-1-.4-1.7-.4-.6 0-1.2.1-1.6.4.1-.3-.1-.4-.4-.4h-1.2c0 .3 0 .7-.3.7.1-.4 0-.5-.2-.5h-.6c-.2 0-.3-.1-.4-.3-.1.2-.3.3-.5.3-.1 0-.2 0-.4-.1-.1 0-.2-.1-.3-.1-.2 0-.3.1 0 .5-.4-.2-.8-.3-1.2-.3-.6 0-1.3.1-1.9.2s-1.3.2-2 .2c-.5 0-1-.1-1.5-.4-1.5.3-3.2.3-5.1.2-.5 0-1.1-.1-1.7-.1s-1.1-.1-1.7-.1c-1.1-.1-2.2-.1-3.3-.1-.2 1.3-1.2 1.9-1.3 3.3h.4c.2.5-1.1.4 0 .5-.1.2-.3.3-.7.3-.1.3.2.3.2.5.2-.1 0-.7.9-.7h.1c-.2-.2-.3-.5-.2-.9.4.1.7.4.9.5.1 0 .2-.1.2-.2q.1-.1.2-.1c.1 0 .1.2-.1.4s-.3.4-.5.4h-.1c.1.3.9.2.6.7.5 0 .1-.5-.2-.5.2-.2 1.5-.5 1-.8.1-.1.3-.1.5 0h.5c.2 0 .4 0 .5.1.4 0 .7 0 1-.1.6.2 0 .2-.4.2h-.3c.2.2.2.4.2.7h.1c.2 0 .2-.1.2-.3s0-.3.2-.3q.1 0 .2.1v.5c.2-.1.2-.3.6-.3h.1c-.5.3 0 .4 0 .9.3-.2.3-.6.7-.7-.3-.1-.7-.2-.2-.7.2.1.3.3.4.3s.2-.1.3-.3c.3.1 0 .2 0 .3.3-.2.7-.3 1.2-.3s1 .2 1.1.6c.3-.6.6-.2 1-.7.8.2-.3.3-.3.5.2.1.4.2.5.2.2 0 .4-.1.5-.2s.2-.2.3-.2h.2c.6 0 .5.5 1 .6 0-.3.1-.4.2-.4 0 0 .1 0 .2.1.1 0 .1.1.2.1s.2-.1.4-.4c.6.2 1.1.3 1.6.3h1.2c.6 0 1.1.1 1.7.4.1-.2.4-.3.6-.3.1 0 .3.1.3.3.3 0 .2-.3 0-.3.1-.1.2-.1.3-.1.4 0 1 .4.8.9.2-.2.4-.4.8-.3.1 0 .2 0 .4.1 0 .3-.2.5-.2.5s.1 0 .4-.1c0-.4-.2-.6-.6-.7-.1 0-.3 0-.5.1.2-.2.6-.3.7-.7 0 .3 0 .4.1.4h.4c.1 0 .3.1.4.4.2 0 .7-.5.3-.5h-.1c.1-.1.2-.1.3-.1.3 0 .2.4-.1.8h.1c.5 0 1.2-.5.6-.7 0-.1.1-.1.1-.1.1 0 .2.2.4.3.1.2.3.3.4.4.1 0 .2-.1.2-.4.4.2.8.7.4.9h.1c.9.1-.4-1.1.5-1.4.7.2.2.3.2.7.1-.1.2-.1.3-.1s.2.1.2.3c.4-.2.7-.3 1.1-.2.2 0 .3 0 .5.1s.3 0 .5.1c.4 0 .7 0 1.1-.2.1.6-.8.4-.7 1 .6-.3 1.4-.4 1.7-1h.1c.2 0 .4.1.7.1s.5.1.8.2c.4 0 .6-.1.5-.5.2.2.5.2.9.2h.4c-.7.4.4.4.6.7.7-.1-.1-.6 0-.9h.1c.1 0 .1.1.1.2s.2.1.3.1c.3 0 .6-.1.1-.3h.1c.2 0 .4.2.6.4.2.2.5.4.8.4.2 0 .5-.1.7-.3 0-.2-.1-.2-.3-.2h-.3c-.2 0-.4 0-.2-.3.1 0 .2.1.3.1.5 0 1-.2.4-.4 0-.1.1-.1.1-.1.2 0 .5.6.7.7.2-.1.4-.3.5-.5.5.3.9.4 1.4.5.4 0 .8 0 1.3-.1-.1-.2-.2-.3-.2-.5.9.6 2.1.8 2.9 1.7-.1-.6-1-.6-.9-1.3.1.1.4.2.6.2.3 0 .5-.1.6-.3.2.4.4.7.6 1.1.6-.1-.4-.6.3-.9.2.4 1.1.3 1.3.8.6-.6-.5-.2.1-1.1.4.1.5.3.4.7h.2c.2 0 .3.1.4.1s.2.1.3.1.2-.1.3-.3c0 0-.1.1-.2 0-.3 0-.9-.3-.5-.8h.1c.2 0 .3.1.3.2s.1.2.3.2h.3c-.2.1-.4.5 0 .5.3-.2.1-.3.3-.9.5.1.5.5.2.7h.2c.4 0 .3-.4.5-.5.2.1.2.8-.2.8-.1 0-.2 0-.3-.1-.1.3.1.4.4.4h1c-.2-.2-.6-.3-.4-.9.6 0 1.1.5.6.7h.2c.4 0 .3-.4.5-.5 0-.2-.4-.2-.7-.2.1-.2.2-.3.3-.3s.3.1.6.2c0 .3-.1.7.2.7.5 0-.3-.5 0-.9.1.1.4.2.5.2s.2-.1.2-.3c.4.3.8.4 1.3.4.3 0 .6 0 1-.2-.1.1-.3.3-.3.5.8-.1.4-.3.7-.7.5.1.5.5.4.9.2-.1.2-.3.6-.3h.1c-.1-.2-.2-.3-.4-.4.3-.1 1-.1 1.6-.3.2.2.7.3 1.1.3s.8-.1.5-.4c.2.2.5.2.7.3h.8c.1 0 .3.1.3.2.3 0 .2-.3.3-.5.5.1.4.5.6.7.3-.5.6-.7 1.9-.8-.2.2-.2.3-.2.3h.2c.1 0 .2.1.1.3.1-.1.4-.3.6-.3.1 0 .1.1.1.4.3-.2.3-.6.7-.7.3.1.2.4.6.4h.3c0 .3-.3.4-.3.7.1.2.3.4.6.4-.9-.4-.1-.7.1-1.2.1.1.2.2.4.2.1 0 .3 0 .4-.1.1 0 .3-.1.5-.1h.3v.5c-.1.1-.2.1-.3.1-.2 0-.3-.3-.6-.3-.2.5.3.5.2.9.2-.3.8-.3 1-.7.3.2.4.5.9.6.1-.4-.5-.4-.6-.7.1-.1.3-.2.4-.2.4 0 .8.4.7.8.5-.2.1-.8 0-.9.2-.2.7 0 1.4-.1-.1.1-.2.3-.3.5.2-.5 1.6 0 1.4-.8.1.2.3.3.6.3h.6c.3 0 .6.1.7.5.6 0-.3-.3 0-.7.3.2.7.2 1 .3h1.3c.3 0 .6.1.8.5.5-.1 1.1-.2 1.2-.7.2.2.4.3.6.3h1c.2 0 .5.1.7.2.3 0 .2-.4.3-.7.2.2.3.3.4.3.2 0 .4-.2.8-.2-.2.2-.2.3-.1.3h.3c.2 0 .4.1.3.5.4-.5 2 0 2.3-.6.5.1.5.3.2.5.3 0 1-.3 1.4-.3.2 0 .4.1.4.4.4-.4 1.2-.1 2.1-.4.1.3.5.2.4.4.2-.1.3-.1.5-.1h.4c.3 0 .5 0 .6-.4.9.1.9.2 1.6.6.3-.1-.1-.2 0-.5.2.2.5.3.8.3.2 0 .4-.1.6-.3.4.2.8.3 1.2.3h1.1c.3 0 .8-.1 1.1 0 .5 0 .9.1 1.4.4.8-.4 1.4-.4 2.2-.3h.6c.6 0 1.3 0 2.1-.1-.1.2 0 .3.1.3s.4-.2.4-.3c.4.2 0 .3 0 .5h.1c.3 0 .3-.3.4-.5.1.1.3.2.4.2s.2-.1.3-.2.2-.2.5-.2v.7c.5 0 .5-.4.7-.7h.1c.1 0 .2.1.3.1s.2.1.3.1.1 0 .2-.2c.3.2-.1.3.2.7.3 0 .2-.4.3-.7.1.1.2.1.2.1h.4c.1 0 .1.1.1.3.2-.3 1.1.1 1-.5.3.1.6.2.8.2h.7c.2 0 .5.1.8.3.3 0 .2-.3.3-.5.5.2 1.4.1 1.1.8.2-.1.4-.2.7-.1-.2-.2-.4-.3-.7-.4.1-.1.2-.2.3-.2s.3.1.4.2.2.2.3.2.1-.1.1-.5c.6.2 1.1.4 1.6.4.6 0 1.1-.1 1.7-.6.3.1-.1.2 0 .5.1-.1.2-.1.3-.1s.1 0 .1.1c.4 0 .2-.5.6-.5h.2c.5 0 .6.3.5.7.4-.5.9-.6 1.5-.6h.6c.4 0 .8 0 1.2-.2.8.2-.3.3-.3.5.3-.2 2.3.1 1.2-.3 0-.2.3-.2.5-.1h.4v.7c1-.8 1.2 0 1.4-1 .1.3.3.4.6.4h1.1c.1 0 .3 0 .3.1.3 0 .2-.3.3-.5.2.2.5.2.6.3.2 0 .4 0 .6-.1s.5-.1.9-.1h.2c-.2.2-.1.4.2.4.7 0 2.5-.7 2.8-.7.2.2.5.3.9.4.4 0 .9-.1 1.2-.2.2.1.3.3.4.6.3-.1-.1-.2 0-.5.4.1.6.2.7.2s.1-.1 0-.5h.1c.6 0 .7.3.4.6.1-.1.3-.1.5-.1.1 0 .2.1.2.2.1-.3.2-.2.5-.7.6.4 1.2.1 1.6.4 0-.2.1-.3.3-.3.3 0 .7.2 1.1.3 0-.2.1-.3.4-.3s.7.2 1 .3c.3 0 .2-.4.3-.7.1 0 .3 0 .4.1.5 0 .8-.1 1.2-.1-.8.3.6.4 0 .5 0 .1.1.1.1.1h.5c.1 0 .2.1.3.2.4 0 .5-.3.5-.7.1.1.2.1.4.2.1 0 .3-.1.3-.3.1.2.3.3.5.3s.5-.1.6-.3c.2.3-.4.5-.3 1.2h.1c.2 0 .2-.1.2-.3s0-.3.2-.3q.1 0 .2.1c-.5-.3-.3-.4.1-.4.2 0 .5.1.6.3-.2-.3-.1-.4.1-.4h.6c.3 0 .5 0 .5-.3.2.2.4.3.6.3s.4 0 .5-.1.3-.1.5-.1.3.1.4.5c.3 0 .2-.3.3-.5.1.1.2.2.3.2h.3c.1 0 .2-.1.2 0 .1 0 .1.1.1.3.3 0 .2-.3.3-.5.2.2.6.3.9.3.4 0 .7-.1.7-.6.2.3.7.4.9.8 2.6-.9 4.9-.3 7.2-1.2.5.2 1.1.3 1.8.3 1.6.1 3.6-.1 5.1-.1 0-.2-.1-.2-.2-.2 0-.1.1-.2.1-.2.2 0 .5.3.3.5.3-.2.8-.3 1.2-.3.3 0 .5.1.8.2.6-.1-.7-.4 0-.7.2.2.4.2.6.2h.4c.3 0 .6.1 1 .4.3 0 0-.7-.2-.7h.1c.3 0 1.3.3 1.3.6.3 0 .3-.4.1-.5h-.1.8c.5 0 1 .1.6.4.3-.1.9-.5 1.3-.5.2 0 .4.1.5.4.2-.3.5-.4.8-.4.5 0 1.1.3 1.5.4.4-.1-.1-.2 0-.5.2.1.3.2.5.2h1c.2 0 .4.1.5.3.1 0 .2-.1.3-.2s.1-.3.1-.3 0 .1.1.3c.4-.4.7-.8 1.6-.8-.1.3-.7.3-.3.7.3-.2.4-.7 1-.7h.2c-.1.2-.4.3-.5.5.5-.1 1.1-.2 1.2-.7.2.1.3.3.4.6.1-.5.2-.2.7-.7.2.2.5.4.7.6.3-.1-.1-.2 0-.5.2.1.4.1.5.1.2 0 .3 0 .4-.1s.2-.1.2-.1c.1 0 .2.1.4.3.3-.2 1.1-.3 1.7-.3.4 0 .7.1.8.3.1-.1.6-.5.8-.5.1 0 .2.1.1.3 2.8-.9 11-.4 12.5-.8h.1c2.1.1 4.2.1 6.2 0 .1-.2.1-.3.3-.5-.7-.1-.2-.7-.9-1.1.3 0 .3.2.6.2h.1c-1-.4.4-2.4-.4-2.4-.1 0-.2 0-.4.1.7-.7.4-1.3.3-2.1-1 .1-1.2-.8-2.6-.7m-71.3 3.2c.2 0 .3-.1.3-.3.9.4 0 .6-.9.5-.2 0-.4 0-.5-.1.1-.2.3-.2.5-.2h.3c.1.1.2.1.3.1M378 91.6l-.1.1c.1 0 .1-.1.1-.1m-35 .7c-.2 0-.3 0-.4.1.2-.1.3-.1.4-.1.1.1.1.2.1.4s0 .3.2.3h.1c0-.2.1-.2.3-.2h.6c.2 0 .3 0 .3-.2-.4-.1-1.1-.3-1.6-.3m-16.1-.8c-.1.1-.2.3-.1.3 0 0 .1 0 .1-.1.3.1.2.4.2.7h.1c.1 0 .2 0 .3.1.1 0 .1.1.2.1 0 0 .1 0 .1-.1-.5-.3-.3-.9-.9-1m2 .4s-.2.3-.7 1.1h.2c.1 0 .2.1.4.1.1.1.2.1.2.1s.1 0 .1-.2c-.4-.5-.2-1.1-.2-1.1m-9.3.1h-.1c-.1.6.7.6.9.9.3-.2-.1-.8-.8-.9m-32.3-.1v.3c0 .1-.1.1-.2.2v.3h.4c-.1-.1.3-.7-.2-.8"/><path class="cls-19" d="M501 87.5c-2 .1-4 .2-6.2.1h-.1c-1.5.3-9.7-.1-12.5.8 0-.2 0-.3-.1-.3-.2 0-.7.4-.8.5-.1-.2-.4-.2-.8-.3-.6 0-1.5.1-1.7.3-.2-.2-.3-.3-.4-.3s-.2 0-.2.1-.2.1-.4.1c-.1 0-.3 0-.5-.1-.1.3.3.5 0 .5-.2-.2-.4-.4-.7-.6-.5.4-.6.2-.7.7-.1-.2-.2-.4-.4-.6-.1.5-.7.5-1.2.7.1-.2.4-.3.5-.5h-.2c-.6 0-.7.4-1 .7-.4-.4.1-.3.3-.7-.9-.1-1.2.4-1.6.8q0-.3-.1-.3c-.1 0-.1.1-.1.2-.1.1-.1.2-.3.2-.1-.3-.3-.3-.5-.3h-1c-.2 0-.4-.1-.5-.2-.1.3.3.5 0 .5-.4 0-.9-.3-1.5-.4-.3 0-.6.1-.8.4-.1-.3-.3-.4-.5-.4-.4 0-1 .4-1.3.5.3-.3-.1-.4-.6-.4h-.7c.2.1.2.5-.1.5 0-.3-1-.6-1.3-.6h-.1c.2.1.5.7.2.7-.4-.3-.7-.4-1-.4h-.4c-.2 0-.4-.1-.6-.2-.7.3.6.6 0 .7-.3-.1-.5-.2-.8-.2-.5 0-.9.1-1.2.3.1-.2-.1-.5-.3-.5q-.1 0-.1.2c.1 0 .3 0 .2.2-1.5 0-3.5.2-5.1.1-.7 0-1.3-.1-1.8-.3-2.2 1-4.6.3-7.2 1.2-.1-.4-.7-.4-.9-.8 0 .5-.3.6-.7.6-.3 0-.7-.2-.9-.3 0 .2 0 .5-.3.5 0-.2 0-.3-.1-.3h-.2c-.1 0-.2.1-.3 0-.1 0-.2-.1-.3-.2 0 .2 0 .5-.3.5-.1-.4-.2-.5-.4-.5-.1 0-.3.1-.5.1s-.4.1-.5.1c-.2 0-.4-.1-.6-.3 0 .3-.2.3-.5.3h-.6c-.2 0-.3.1-.1.4-.1-.2-.4-.3-.6-.3-.4 0-.6.2-.1.4-.1 0-.2-.1-.2-.1-.2 0-.2.1-.2.3s0 .3-.2.3h-.1c0-.8.5-.9.3-1.2-.2.2-.4.3-.6.3s-.4-.1-.5-.3c-.1.2-.2.3-.3.3s-.2-.1-.4-.2c0 .4-.1.7-.5.7-.1-.1-.2-.2-.3-.2h-.5q-.1 0-.1-.1c.7-.1-.7-.2 0-.5-.4 0-.8.2-1.2.1-.1 0-.2 0-.4-.1 0 .3 0 .7-.3.7-.3-.2-.7-.3-1-.3-.2 0-.4.1-.4.3-.4-.2-.8-.3-1.1-.3-.2 0-.3.1-.3.3-.3-.3-1 0-1.6-.4-.3.5-.4.4-.5.7 0-.1-.1-.2-.2-.2-.2 0-.4.1-.5.1.3-.2.2-.5-.3-.6h-.1c.1.4.1.5 0 .5s-.4-.1-.7-.2c-.1.3.3.5 0 .5-.1-.2-.2-.4-.4-.6-.3.2-.8.3-1.2.2-.4 0-.7-.1-.9-.4-.4.1-2.2.8-2.8.7-.2 0-.3-.1-.2-.4h-.2c-.4 0-.7 0-.9.1s-.4.1-.6.1-.4-.1-.6-.3c0 .2 0 .5-.3.5 0-.1-.2-.1-.3-.1h-1.1c-.3 0-.6-.1-.6-.4-.2 1-.4.2-1.4 1v-.7h-.4c-.2 0-.5 0-.5.1 1.1.4-.9.2-1.2.3 0-.2 1-.3.3-.5-.4.2-.8.2-1.2.2h-.6c-.6 0-1.1 0-1.5.6.1-.4 0-.7-.5-.7h-.6c-.4 0-.2.5-.6.5 0-.1-.1-.1-.1-.1-.1 0-.2.1-.3.1-.1-.3.4-.4 0-.5-.5.4-1.1.6-1.7.6-.5 0-1-.2-1.6-.4 0 .4 0 .5-.1.5s-.2-.1-.3-.2-.3-.2-.4-.2-.2 0-.3.2c.3.1.5.2.7.4-.3 0-.5.1-.7.1.3-.7-.6-.6-1.1-.8 0 .2 0 .5-.3.5-.3-.2-.5-.3-.8-.3h-.7c-.2 0-.5-.1-.8-.2.2.6-.8.2-.9.5 0-.2 0-.3-.1-.3h-.3c-.1 0-.2 0-.2-.1 0 .3 0 .7-.3.7-.3-.5.1-.6-.2-.7 0 .2-.1.2-.2.2s-.2-.1-.3-.1-.2-.1-.3-.1h-.1c-.2.2-.2.6-.7.7v-.7c-.2 0-.4.1-.5.2s-.2.2-.3.2-.2-.1-.4-.2c0 .2 0 .5-.4.5h-.1c0-.2.4-.4 0-.5 0 .2-.2.3-.4.3-.1 0-.2-.1-.1-.3-.8.2-1.5.2-2.1.1h-.6c-.7 0-1.4 0-2.2.3-.4-.3-.9-.4-1.4-.4h-1.1c-.4 0-.8.1-1.1 0-.4 0-.8-.1-1.2-.3-.2.2-.4.3-.6.3-.3 0-.6-.2-.8-.3-.1.3.3.5 0 .5q-.7-.5-1.6-.6c-.1.4-.3.4-.6.4h-.4c-.2 0-.4 0-.5.1l-.1.1c0-.1.1-.1.1-.1.2-.2-.2-.1-.4-.4-.9.3-1.7 0-2.1.4 0-.3-.2-.4-.4-.4-.5 0-1.1.3-1.4.3.3-.2.3-.4-.2-.5-.3.6-1.9.1-2.3.6.1-.4-.1-.4-.3-.5h-.3c-.1 0-.1-.1.1-.3-.4.1-.6.3-.8.2-.1 0-.2-.1-.4-.3 0 .3 0 .7-.3.7-.2-.2-.4-.2-.7-.2h-1c-.2 0-.5-.1-.6-.3-.1.5-.7.5-1.2.7-.2-.4-.5-.5-.8-.5h-1.3c-.3 0-.6-.1-1-.3-.3.4.6.7 0 .7-.1-.4-.4-.5-.7-.5h-.6c-.2 0-.5-.1-.6-.3.2.8-1.2.3-1.4.8 0-.2.1-.4.3-.5-.7.1-1.2 0-1.4.1.1.1.4.7 0 .9.1-.3-.3-.8-.7-.8-.2 0-.3 0-.4.2.2.3.7.3.6.7-.5-.1-.6-.4-.9-.6-.2.3-.7.4-1 .7.1-.4-.4-.4-.2-.9.3.1.4.3.6.3.1 0 .2 0 .3-.1v-.5h-.3c-.2 0-.4 0-.5.1s-.3.1-.4.1-.2-.1-.4-.2c-.2.5-.9.9-.1 1.2-.4 0-.5-.2-.6-.4 0-.3.3-.4.3-.7h-.3c-.4 0-.3-.4-.6-.4-.4.1-.4.5-.7.7 0-.3 0-.4-.1-.4-.2 0-.5.3-.6.3 0-.2 0-.3-.1-.3h-.2s0-.1.2-.3c-1.2.1-1.6.3-1.9.8-.2-.2-.2-.7-.6-.7 0 .2 0 .5-.3.5 0-.2-.2-.2-.3-.2h-.8c-.2 0-.5-.1-.7-.3.3.3 0 .4-.5.4-.4 0-1-.2-1.1-.3-.7.2-1.3.2-1.6.3.3.1.4.2.4.4h-.1c-.4 0-.4.2-.6.3.1-.4.1-.8-.4-.9-.3.4.1.5-.7.7 0-.2.1-.4.3-.5-.4.1-.7.2-1 .2-.5 0-.9-.2-1.3-.4.1.3 0 .3-.2.3s-.4-.1-.5-.2c-.3.4.5.9 0 .9-.3-.1-.2-.4-.2-.7-.3 0-.5-.1-.6-.2-.1 0-.2.1-.3.3.3 0 .6 0 .7.2-.2.1-.1.5-.5.5h-.2c.4-.3 0-.7-.6-.7-.2.6.2.7.4.9h-.8c-.3 0-.5-.1-.4-.4.1.1.2.1.3.1.4 0 .5-.8.2-.8-.2.1-.1.5-.5.5h-.2c.3-.2.3-.6-.2-.7-.2.6 0 .7-.3.9-.4-.1-.1-.4 0-.5h-.3c-.2 0-.3-.1-.3-.2s-.1-.2-.3-.2h-.1c-.4.5.1.8.5.8h.2c-.1.2-.2.3-.3.3s-.2 0-.3-.1c-.1 0-.2-.1-.4-.1h-.2c.1-.4 0-.7-.4-.7-.6.9.5.5 0 1.1-.2-.4-1.1-.3-1.3-.8-.6.2.4.7-.3.9-.2-.4-.4-.7-.6-1.1 0 .2-.3.3-.6.3-.2 0-.5-.1-.6-.2-.1.7.8.7.9 1.3-.8-1-2-1.1-2.9-1.7 0 .2.1.4.2.5-.5.1-1 .2-1.3.1-.5 0-1-.2-1.4-.5-.1.2-.3.4-.5.5-.3-.1-.5-.7-.7-.7 0 0-.1 0-.1.1.6.2.1.4-.4.4-.1 0-.2 0-.3-.1-.2.3 0 .3.2.3h.1c.2 0 .4 0 .3.2-.3.2-.5.3-.7.3-.3 0-.6-.2-.8-.4-.2-.2-.5-.4-.6-.4h-.1c.4.2.1.3-.1.3s-.3-.1-.3-.1c0-.1 0-.2-.1-.2h-.1c-.1.3.6.8 0 .9-.2-.3-1.3-.3-.6-.7h-.4c-.4 0-.7-.1-.9-.2.1.4-.2.6-.5.5-.2 0-.5-.1-.8-.2s-.5-.1-.7-.1h-.1c-.3.5-1.1.7-1.7 1-.1-.6.8-.4.7-1-.4.2-.7.2-1.1.2-.2 0-.3 0-.5-.1s-.3 0-.5-.1c-.4 0-.8 0-1.1.2 0-.2 0-.3-.2-.3-.1 0-.2 0-.3.1 0-.4.5-.5-.2-.7-.8.3.5 1.4-.5 1.4h-.5c.4-.2 0-.7-.4-.9-.1.3-.1.4-.2.4s-.3-.2-.4-.4-.3-.3-.4-.4c0 0-.1 0-.1.1.5.2-.1.7-.6.7h-.1c.4-.4.4-.8.1-.8-.1 0-.2 0-.3.1h.1c.4 0-.1.5-.3.5-.1-.3-.3-.4-.4-.4h-.4c-.1 0-.2-.1-.1-.4-.1.4-.5.4-.7.7.2-.1.4-.1.5-.1.4 0 .5.2.6.7-.2.1-.3.1-.4.1s.1-.2.2-.5c-.1 0-.2-.1-.4-.1-.4 0-.6.2-.8.3.2-.5-.4-.9-.8-.9-.1 0-.3 0-.3.1.2 0 .3.3 0 .3 0-.2-.2-.3-.3-.3-.2 0-.4.1-.6.3-.6-.3-1.1-.4-1.7-.4h-1.2c-.5 0-1-.1-1.6-.3-.1.3-.3.4-.4.4s-.1 0-.2-.1-.1-.1-.2-.1-.2.1-.2.4c-.5-.1-.4-.6-1-.6h-.2c-.1 0-.2.1-.3.2-.1.1-.3.2-.5.2-.1 0-.3-.1-.5-.2 0-.2 1-.3.3-.5-.4.5-.6 0-1 .7-.1-.4-.6-.6-1.1-.6-.4 0-.9.1-1.2.3 0-.2.4-.3 0-.3-.1.2-.2.3-.3.3s-.2-.2-.4-.3c-.5.5-.1.6.2.7-.4.1-.4.5-.7.7 0-.4-.4-.6 0-.9h-.1c-.4 0-.4.2-.6.3v-.5c-.1 0-.2-.1-.2-.1-.2 0-.2.1-.2.3s0 .3-.2.3h-.1c0-.3 0-.6-.2-.7h.3c.4 0 1 0 .4-.2-.3.1-.6.1-1 .1-.2 0-.4 0-.5-.1h-1c.6.3-.7.6-1 .8.3 0 .7.6.2.5.2-.6-.6-.4-.6-.7h.1c.2 0 .4-.2.5-.4.1-.2.2-.4.1-.4 0 0-.1 0-.2.1 0 .2-.1.2-.2.2-.2 0-.5-.3-.9-.5-.1.4 0 .7.2.9h-.1c-.9-.1-.6.6-.9.7 0-.2-.3-.3-.2-.5.4 0 .6-.1.7-.3-1.1-.1.3-.1 0-.5h-.4v.3h-.1c-.7 0-.5.7-1.1.7.2.4.2.7.1 1 .1 0 .2-.1.2-.2v-.3c.5 0 0 .6.1.9h-.4c0 .2.1.4.3.6-.3.2-.9.1-1.2.3 0 .6.5.9.6 1.4-1.2.7 0 1.4-.8 2.1.8.2 1.6.3 2.5.4 1.2.1 2.4 0 3.6-.1s2.3-.2 3.3-.1c.6 0 1.1.1 1.6.2 0-.2 0-.5.3-.5 0 .3.1.5.4.6.3-.3 1-.2 1.4-.5-.3.2-.1.3.3.3.7 0 1.8-.2 1.8-.6.2.4.6.6 1 .6.3 0 .5 0 .8-.1s.5-.1.7-.1.4.1.5.2c0-.3.2-.4.5-.5.8.2 1.7.4 2.7.4 1 .1 2.2 0 3.3 0h3.3c.3 0 .5 0 .8.1.2-.6-.6-.4-.6-.7.1 0 .3 0 .2-.2.8.6 1.7.8 2.8.9.8 0 1.5 0 2.3-.1s1.5-.1 2.3-.1c.5 0 .9.1 1.3.2.4 0 .2-.5.6-.5h.1c-.1.3.1.4.4.4h1.2c.3-.4-.6-.7 0-.7 0 .3.6.1.7.4-.2 0-.6.3-.2.3 0-.1.1-.2.2-.1.2 0 .4.1.5.2-.2-.8.7-.7 1-1.2 0 .4 0 .8-.4.7-.1 0-.2 0-.3-.1 0 .4.1.5.3.5h.3c.1 0 .3 0 .5.1.1-.2.2-.3.5-.3.2 0 .4.1.6.1s.5.1.9.1h.4c-.1-.7.5-.8 1-1-.5.3.1.5-.1 1.1 1-.2 1.3-.3 1.7-.2.3 0 .5.1 1.1.2.3-.4-1-.7-.2-.9.8.2 0 .4.4.7 1.2 0 1.7-.1 2.4 0 .4 0 .8.1 1.3.2 0-.2 0-.5.3-.5.1.3.3.4.6.4.6 0 1.4-.6 1.7-.7 0 .2.2.2.2.4 0-.1-.2-.2-.3-.2-.3 0-.7.3-.2.5.4 0 2.5-.1 2.1-.8.5.3 1 .4.2.7.5-.1 1-.1 1.4 0 .3 0 .6 0 .9.1s.5.1.8.1c.9 0 1.7 0 2.6-.5 0 .3.1.4.1.4.2 0 .4-.4.5-.5.2.3.4.4.7.5h1.3c.3-.4-.9-.6-.2-.7.2.4.7.7 1.3.8 3.5-.7 4.8.1 7.9-.7l-.2.3c.3.1.6.1 1 .1 2.3.1 6.2-.3 6.4-.6.5.1.9.1 1.3.2 1.6.1 2.4-.4 4.7-.4.1-.3-.3-.5 0-.5.4.1.1.6.4.7 1-.4 3.5.1 4.6-.6-.1.2-.4.3.2.4h.1c.6 0 1-.1 1.5-.2.4-.1.9-.2 1.7-.2h.4c.1-.3-.3-.5 0-.5 0 .1.1.1.1.1.1 0 .2-.1.3-.1v.5c2.6-.7 2.7.2 4.9-.8.5 0 .4.5.6.5.1 0 .2 0 .3-.1.1-.4-1.3-.7-.4-1.1-.1.5.2.7.6.7s.8-.1 1-.3c.3.5-.9.5-.3.7.1-.2.2-.3.3-.3s.2.2.4.3c2.5-.6 4.4-.4 6.5-.4.3-.1.1-.7.5-.7 0 .2-.1.5.2.5.2-.2.4-.2.6-.2s.5.1.7.2.5.2.7.2h.3c2.1-.3 7.9-.2 9.7-.6.1 0 .1-.1.2-.1 0-.1.1-.2.1-.2.1-.2.2-.3.3-.3s.2.1.3.5c-.1-.1-.4-.2-.5-.2h-.1c0 .1-.1.1-.1.2v.2c2-.3 4.8.3 5.6-.8.8.3 1.5.5 2.2.5 1.5.1 3-.3 4.5-.3-.1 0-.3 0-.2-.2.1.1.2.2.3.2.2 0 .3-.4.6-.5 0 .1 0 .2.1.2h.1c0 .3-.6.1-.5.5 1.1-.2 1.7-.3 1.9-.6.7.2 1.6.3 2.5.3 3 .2 6.8-.3 9.7-.4-.1 0-.2-.2 0-.2.1.2.4.2.7.2h1.6c.2-.2.4-.5.7-.7-.1.3 0 .5.1.5s.2-.1.3-.1c.1-.1.2-.1.2-.1s0 .1-.2.3c.2-.1 1.7-.2 2.4-.2.3 0 .4.1.2.2 1-.4 1.9.2 2.3-.6.2.2.6.3 1.1.3 1.3.1 3.3-.3 4.4-.4 5.7-.2 13.1-.4 18.9-1.7.4.2.8.3 1.1.3.5 0 1-.1 1.5-.3 4.5.2 10.6-.8 15.2-.6.9-.5 2.3-.5 3.7-.4.4 0 .9.1 1.3.1s.9.1 1.3.1c2.1.1 3.7-.1 3-1.9h1c.5 0 1 .1 1.5.2.4.1.8.2 1.2.2.5 0 .9-.1 1.4-.3 0-.2 0-.6.2-1m-102 7.1c.1-.5 0-.9-.4-1.1q.1-.1.2-.1c.1 0 .2.2.4.3.1.2.3.3.5.3h.2c.1-.1.2-.1.3-.2-.1.1-.2.1-.3.2-.3.3-.4.6-.9.6m-5.1.1c0-.1.4-.1.7-.1.4 0 .8.2.6.7-.3 0-.6 0-.9-.1.1-.2.5-.1.5-.3q0-.1-.1-.1c-.2 0-.7.2-.6.5-.8-.1.4-.5-.1-.5l-.1-.1m-51.2-2.2c.1-.1.2-.1.4-.1.5 0 1.2.3 1.5.4 0 .2-.1.2-.3.2h-.6c-.2 0-.3 0-.3.2h-.1c-.2 0-.2-.2-.2-.3 0-.2 0-.3-.2-.3 0-.1-.1-.1-.2-.1m-16-.5s.1-.2.1-.3c.6.1.5.7.9.9 0 .1-.1.1-.1.1s-.1 0-.2-.1c-.1 0-.2-.1-.3-.1h-.1c0-.3.1-.7-.2-.7 0 .2-.1.2-.1.2m1.5 1.2c.5-.8.7-1.1.7-1.1s-.2.7.2 1.2c0 .1 0 .2-.1.2s-.1-.1-.2-.1-.2-.1-.4-.1c-.1-.2-.2-.1-.2-.1m-7.9-.1c-.2-.4-1-.4-.9-.9h.1c.8 0 1.2.7.8.9m-2 4c.1-.2.2-.4.2-.7.7.4.6.3 1.4.6-.1.2-.5.1-.5.3-.2 0-.2-.2-.2-.4h-.1c-.2 0-.3 0-.4.1-.1.1-.3.1-.4.1"/><path class="cls-18" d="M500.6 100.5c-.4-.3-.9-.3-1.4-.4-.3-.1-.8-.1-.9-.2l-.3-.2-.2.3c-.6 1-.5.7-1.2 1.3l.1.4h.1l-.3.2.3.3c.1.1.1.2.1.4s.1.4.2.6v.1l.1.1c.3.1.5.3.7.5l.1.1h.2c.2 0 .4-.1.5-.1s.1-.1.2-.1l.3-.1.1-.3c0-.1.2-.1.3-.2.2-.1.4-.2.6-.4l.1-.1v-.1c0-.4-.1-.1 0-.5.1-.3.2-.6.2-.9 0-.2-.1-.4-.1-.7h.2zm-6.7 2.3c1-.5 1.7-1.2 1.7-2.4-.5-.4-.9-.9-1.6-1.1-.2 0-.1.2-.2.2-2.3.1-4.3.2-5.3-1.7.1-.2.3-.3.4-.5.1 0 .2-.1.3-.1.2-.5.9-.7 1.2-1.2 1.4-1.1 2.6-1.6 3.8-2.8.1-.3.2-.6.3-.8-.1-.9-.8-.7-1-1.4-.5 0-.6-.4-.9-.7-.4.2-.7.4-1.1.5 0 .2.1.2.1.3-.1-.1-.3-.2-.5-.1-1 .7-1.9 1.2-2.7 2.2h-.1c-.7.6-1.8 1.3-2.5 2.1 0-.7.3-1.6.9-2.1-.2-.2.1-.2 0-.5.9-.5.4-1.8-.3-2.3-.1 0-.2 0-.4.1-.1-.1-.2-.3-.3-.4-.5 0-.8-.3-1.2-.3-1 .6-1 1.9-1.6 2.6-.5 2.8-1.9 4.7-2.1 7.8-.1.1-.3.1-.2.3.1.1 0 .1 0 .2.1 0 .2 0 .2.1-.1 0-.2 0-.2-.1-.1 0 0 .1-.1.2-.2.4.4.6 0 1 .1.1.3.2.4.3-.3.5.4 1 .4 1.7.5.1.7.6 1.2.5 1.9-.9 2.1-3.3 3.9-4.5.1.1.3 0 .4.2.4.5.9.9 1.5 1.3.4.3 1.1.7 1.3.8.2.1.4 0 .7.1 0 0 .1.2.2.2.9.3 1.9.4 3.4.3m-16.5 1.4c.5-.4 1-.8 1.4-1.3.1-1-.8-1.3-1.2-1.9-2.2.1-4.6.1-6.6-.5-.2-.3-.4-.6-.5-1.1.2-.2.3-.5.3-.8.9-.9 1.7-2.1 3.1-2.5.8-.9 2.2-1.4 3.5-1.8 1.4-.4 2.4-2.5.5-3 0-.2.1-.2 0-.3-.4 0-.5-.2-.7-.2 0-.1.1-.3 0-.3-.1.3-.3-.2-.6-.1-.2.1-.5.2-.7 0-.4.6-1.4.7-1.8 1.3-1.2.3-1.8 1.3-3 1.7-.3.5-1 .7-1.1 1.2-.1 0-.1-.1-.2-.1-.8 1-1.7 1.9-2.1 3.3 0 1.8.5 4.1 2 5.2.5.1.8.4 1.1.7 1.4.4 3.2.8 4.8.8.4-.4 1.3-.2 1.8-.3M465 103c-.6-2.9.2-5.8 1.2-8.8-.5-.2-.4-1.2-.5-1.7-.7-.3-.5-1.4-1-1.9-.9.1-1.2.7-1.7 1.1.1.5-.2 1-.4 1.3-.1.3 0 .4-.1.8 0 .1-.2.2-.3.3 0 .2.2.4.1.7-.2 1.2-.7 2.4-.8 3.7-.1.9.1 2.1-.2 2.8.3 1 .7 2.8 1.4 3.7 1.1 0 2.7-.2 2.3-2m-10.6 1.7c.1-.1.3-.1.4-.1h.1c.4 0 .8-.1 1.1-.1.4-.1.7-.1 1.1-.1.5 0 .8 0 1.2.2h.1c.2-.1.5-.2.8-.2h.3l.1-.1c.2-.2.3-.3.5-.3h.2v-.3c.1-.1.1-.2.1-.3v-.1c0-.1-.1-.1-.1-.1l-.1-.9-.1-.1c-.3-.2-.6-.4-1-.4-.4-.1-.7-.2-1-.5h-.4q-.2 0-.3-.1h-.1c-.4 0-.8.1-1.2.1-1.1.1-2.2.1-3.1.6-.2 0-.3-.1-.5-.1s-.3 0-.4.1c0-1.1.3-1.9.7-2.8.2-.5.4-1 .5-1.5v-.1c.1-.1.2-.3.2-.5 0-.1.1-.3.1-.3.1-.7.3-1.2.5-1.6s.4-.8.5-1.4l.1-.1.1-.1c.1-.7-.2-1-.6-1.4 0-.1-.1-.1-.2-.2l-.1-.1c-.5 0-1.4-.2-1.8-.5h-.1c-.1 0-.2.1-.2.1h-.2v.1c-.3 1.6-.8 2.9-1.2 4.2-.2.8-.5 1.6-.8 2.5 0 .1-.1.1-.1.2-.1.3-.3.7-.2.9-.2.3-.3.8-.4 1.3 0 .1-.1.3-.1.4-.2 1.1-.1 2.5.6 3.4 0 .2.1.3.2.4s.1.2.1.2l.1.1c.5.4 1.1.6 1.8.5.9-.2 2-.6 2.8-.9m-12.8-13c-.9 1.1-1.9 2.1-3.3 2.7-.4-.7-1.1-.9-1.8-1.4 1.2-.9 3.2-1.3 5.1-1.3m1.8 7c.1.8-1 .9-1.2 1.6-1.8.7-3.1 1.8-5.3 2.2.4-1.2.8-2.5 1.1-3.6 1.6-.3 3.1-1.3 5.4-.2m-10.2-4c.3-.2.8-.1 1.1-.3 0-.5.2-.8.7-.9.3 1.2-.5 1.8-.4 2.8-.6 1.8-.2 2.2-1.1 3.7 0 .1.1.2.1.2-.5.4-.3 1.4-.8 1.8.1.2.1.4.2.6-.4.1-.3.7-.4 1.1.2.5.6.8.5 1.1.3.1.4.5.4.6.6.1.5.4 1 .7.2-.2.4-.1.8-.1.2-.2.5-.5.6-.8.7.4 2 1.2 2 .4.1 0 .1.2.3.3.7-.2 1.7-.3 1.9-.7 1.9-.3 3.6-1.2 5.2-2.3.8-.8.2-.2 1.5-1.8 0-.2 0-.5-.2-.6.4-.4-.3-1.2-.5-1.9-.1 0-.2-.1-.3-.2-.6-1-1.9-1.4-2.7-2.4 1-1.4 2.8-2.4 2.6-4.6-.1-.1-.3-.1-.3-.3 0-.9-1.1-1.3-1.7-2-.5 0-.9-.8-1.7-.8-.1.1.1.2 0 .3-.4-.3-.8-.2-1-.4-.4.2-1.3 0-1.7.2-1.6 0-3.1.4-4.2.8-.2-.1-.1 0-.3 0-1.8.5-3.9 1-4.5 2.7.8 1.3 1.6 2.3 2.9 2.8m-13.8 11.1c.2-.1.4-.2.7-.3.1-.1.1-.3.2-.5.6-1.4 1.2-3 1-4.8v-.1c.3-.8.4-1.3.2-2.5v-.1c.1-.3.3-.9.2-1.3l-.1-.4.3.2q0-.1.1-.1c0-.1-.1-.2-.1-.3-.1-.2-.2-.5-.2-.8-.3-.2-.5-.4-.6-.8-.1-.2-.2-.2-.5-.4 0 0-.1 0-.1-.1-.2-.2-.2-.3-.2-.4-.1 0-.2-.1-.2-.1-.4-.2-.7-.3-1.1-.3-.2 0-.3.1-.5.2-.5 1.3-1.4 2.1-2.3 2.9-.5.4-.9.8-1.3 1.3l-.1.1c-.2 0-.5.2-.7.4-.4.3-.8.6-1.2.6-.2 0-.4 0-.6-.1h-.1V98c-.1-.3 0-.5 0-.7 0-.3 0-.4-.1-.6l-.1-.1v-.1c.3-.8-.2-1.4-.7-2.2-.1-.1-.2-.3-.3-.4-.3 0-.5-.1-.7-.2-.2 0-.3 0-.4-.2l-.1-.3c-.2-.2-.4-.3-.7-.4-1 .4-1.3 1-1.9 2-.1.3-.3.6-.5 1-.9 1.4-3 7.2-3.1 7.3-.5 1.3.1 3.6 1 4.5h.6c.5 0 .7-.2 1.2-1.3v-.3c0-.2 0-.3.1-.5s.2-.3.4-.4l.2-.2v-.1c0-.1-.1-.2-.1-.4.1-.4.5-.8.7-1.1-.1-.8.6-2.2.7-2.5l.2-.3.2.3c.7 1.3 1.7 1.9 2.9 1.8 2-.1 4.2-1.7 5.8-2.9 0-.2.2-.2.2-.2h.2v.2c0 .2-.1.2-.1.3-.9 3.4-.7 5.6.4 6.5h.1c.6-.4.8-.6 1.1-.7m-18.6-.6c-.6-2.9.2-5.8 1.2-8.8-.5-.2-.4-1.2-.5-1.7-.7-.3-.5-1.4-1-1.9-.9.1-1.2.7-1.7 1.1.1.5-.2 1-.4 1.3-.1.3 0 .4-.1.8 0 .1-.2.2-.3.3 0 .2.2.4.1.7-.2 1.2-.7 2.4-.8 3.7-.1.9.1 2.1-.2 2.8.3 1 .7 2.8 1.4 3.7 1.2.1 2.7-.2 2.3-2m-12.4-8.9h.6c.2 0 .3-.1.4-.1.2-.1.3-.1.5-.1h.2l.1-.2.1-.1.2-.2.1-.1v-.1c.1-.9-.4-1.3-.8-1.6-.2-.2-.4-.3-.5-.5l-.1-.1h-.1c-.4-.1-.8-.1-1.2-.1-1 0-2 .2-3 .4-.7.1-1.4.3-2.1.3-.1-.2-.4-.3-.7-.3h-.3l-.1.1c-.1.1-.1.2-.1.3s0 .1-.1.1c-.6.1-1.3.2-1.9.2-1 .2-2 .3-3 .3h-.9v.3c-.1.1-.2.3-.2.4 0 .5.1.9.3 1.1.1.2.1.4.2.6v.2l.2.1c.1 0 .1.1.2.2l.1.1c.3.2.6.2.8.2h.9l.1-.1c.1-.1.2-.1.4-.1h.4c.2 0 .4 0 .5-.1h.3c.2 0 .3 0 .4-.1.2 0 .3-.1.5-.1 0 .2-.1.4-.2.6-.1.3-.3.7-.3 1l-.1.1c0 .1-.1.1-.1.1l-.2.1v.2c-.1.7-.4 1.3-.6 1.9-.4 1.1-.9 2.3-.8 3.9v.1c.2.2.2.5.3.8.1.3.2.7.4.9v.2l.2.1c.1.1.2.1.3.1s.1 0 .2.1c.1.2.3.2.4.3l.1.1.1.1h.2c.5 0 .9-.2 1.1-.5s.3-.6.2-1.1v-.2l-.2-.1c-.1 0-.2-.1-.3-.1s-.1-.1-.2-.1c0-.2-.1-.2-.2-.3v-.5c0-.1.1-.3 0-.5q.1-.1.1-.2v-.1c0-.1 0-.2.1-.3 0-.2.1-.3.1-.5.1-.1.1-.2.1-.3l.1-.1v-.3c.1-.3.2-1 .5-1.2l.1-.1v-.1c.1-.5.3-.9.5-1.3.2-.7.4-1.2.6-1.8.2-.5.4-1 .6-1.6.5-.1 1-.2 1.6-.3 1.2.2 2.1.1 2.9 0m-22.1 11c.1-.3 0-.6-.1-.8q0-.1.1-.3c.1-.1.1-.3.1-.5l.2-.1v-.3c.1-.2.2-.4.2-.5.1-.2.1-.3.2-.4.2-.1.5-.2.8-.2h.3c.5-.2 1-.3 1.5-.4l1.2-.3h.1c.2 0 .4-.1.7-.2.2-.1.4-.1.5-.1h.3l.1-.1.9-1.2.1-.1v-.1c0-.2-.1-.4-.3-.5v-.1l-.1-.1c-.1 0-.2-.1-.2-.1v-.3h-.2l.2-.2h-.7c-.8 0-1.5.2-2.2.3-.5.1-1 .2-1.5.2l-.1-.2c0-.2 0-.4.1-.5l.1-.1v-.1c0-.4.1-.8.3-1l.1-.1v.1c0-.2 0-.3.1-.4V98s.1-.1.2-.1c.1-.1.3-.1.4-.2 1.4-.6 4.1-1.1 5.6-1.2h.6l.1-.1s.1-.1.2-.1c.2-.1.4-.1.5-.3.1-.4.1-.7-.1-1v-.1h-.1c-.1 0-.2-.1-.3-.2-.2-.2-.4-.4-.6-.5-.2-.4-.7-.6-1.3-.6H373c-1.5.2-2.8.6-3.6.8-.2.1-.4.1-.5.1h-.1c-.1.2-.3.2-.5.2s-.5.1-.7.2l-1.8.6c-.6.2-1.2.5-1.8.6l-.1.1v.1q0 .1-.1.2s0 .1-.1.1l-.1.1v.4q.1.2.1.3l-.1.2.2.2c.1.1.2.3.4.5.1.2.2.4.4.6l.2.1h.2c.1 0 .2 0 .3.1 0 .2-.1.3 0 .6-.1.3-.2.6-.3.8-.1.2-.1.4-.2.6 0 0-.1 0-.1-.1-.2-.1-.3-.2-.4-.3l-.1-.1-.2.1c-.6.2-1.5.5-1.6 1.5.1.8.5 1.7 1.3 2.1 0 .2-.1.4-.1.6-.2.6-.3 1.2-.2 1.9v.1c.1.2.2.4.4.6.1.1.2.3.3.4l.1.1h.2c.1 0 .3.1.4.1.2.1.4.2.6.1h.1c.4 0 .7-.4.8-.9m-13.1-2.9c.6 1.6 1.7 2.7 3 3.6 1.7.6 1.9-.6 2.8-1.1-.1-.3.1-.3 0-.5.2 0 .2.1.3 0 .3-.6.5-1.2 1-1.6.1-.7.4-1.5.6-2.2-.1-1.6.4-2.6.5-4.2.5-.4.5-1.1.7-1.7-.1-.6-.5-1-.9-1.5-.9-.1-1.1-1-2.1-1.1-.4.7-.3 1.9-.9 2.4-.3 3-.5 5.9-2.7 7.2-.4-1.6-.1-2.9-.3-4.2.2 0 .1-.2.3-.2-.2-.7.4-.7.1-1.4.1 0 .1-.1.2-.1-.2-.4.1-.3-.2-.6 0-.1.1 0 .2-.1-.3-1.5-1.7-2.3-3.2-2.7-1.5 3.5-3.2 7.3-4.6 10.6.2.2.2.6.4.8-.1 0-.2 0-.2.1.5.8.9 2.5 2.1 2.8.2 0 .3-.2.6-.2 0-.2-.1-.1-.1-.3 1 0 .5-1 1-1.4-.2-.6.3-.9.4-1.3.6.1.5-1 1-1.1m-5.9-8.7c-.4-.3-.8-.7-1.2-1-.3.2-.5.4-.6.7 0 .1-.1.2 0 .3v.3c0 .3-.1.4-.4.6 0 1.7-.6 4-1.8 5.5-1.2 1.5-2.2 2.1-4 2.7l-.3.1-.2-.3c-.4-.9-.4-3 .1-4.2 0-.5-.3-1.1-.5-1.6-.1-.3-.2-.5-.3-.8-.5-.2-.7-.5-.8-.8-.2-.3-.3-.5-.7-.4-.1.2-.3.6-.8.7-.1.3-.1.6-.2.9 0 .4-.1.9-.3 1.3 0 0 0 .1.1.2v.3c-.4 1.3-.3 3.1-.1 5.2v.4c.1.1.2.2.3.2l.5.4.1.1-.1.1-.4.1c.2.3.3.6.5.9.3.6.5 1 1 1.2.2 0 .4.1.5.3h1.1c.3 0 .7 0 1.2.1 2.5-1.2 3.9-1.8 5-3.9l.1-.2h.3c.1 0 .1-.1.1-.1v-.6h.1l.5.2c.1-.1.2-.3.2-.4.1-.2.2-.4.4-.6.3-.6.7-1.5 1.2-2.3v-.2c.1-.7.1-1.4.4-2.2-.1-.6-.2-.9-.4-1.3-.3-.7-.5-1.2-.6-1.9m-15.1 12.7c1-.5 1.7-1.2 1.7-2.4-.5-.4-.9-.9-1.6-1.1-.2 0-.1.2-.2.2-2.3.1-4.3.2-5.4-1.7.1-.2.3-.3.4-.5.1 0 .2-.1.3-.1.2-.5.9-.7 1.2-1.2 1.4-1.1 2.6-1.6 3.8-2.8.1-.3.2-.6.3-.8-.1-.9-.8-.7-1-1.4-.5 0-.6-.4-.9-.7-.4.2-.7.4-1.1.5 0 .2.1.2.1.3-.1-.1-.3-.2-.5-.1-1 .7-1.9 1.2-2.7 2.2h-.1c-.7.6-1.8 1.3-2.5 2.1 0-.7.3-1.6.9-2.1-.2-.2.1-.2 0-.5.9-.5.4-1.8-.3-2.3-.1 0-.2 0-.4.1-.1-.1-.2-.3-.3-.4-.5 0-.8-.3-1.2-.3-1 .6-1 1.9-1.6 2.6-.5 2.8-1.9 4.7-2.1 7.8-.1.1-.3.1-.2.3.1.1 0 .1 0 .2.1 0 .2 0 .2.1-.1 0-.2 0-.2-.1-.1 0 0 .1-.1.2-.2.4.4.6 0 1 .1.1.3.2.4.3-.3.5.4 1 .4 1.7.5.1.7.6 1.2.5 1.9-.9 2.1-3.3 3.9-4.5.1.1.3 0 .4.2.4.5.9.9 1.5 1.3.4.3 1.1.7 1.3.8.2.1.4 0 .7.1 0 0 .1.2.2.2 1.1.4 2.1.5 3.5.3m-15-11.6c-.4-.3-.8-.7-1.2-1-.3.2-.5.4-.6.7 0 .1-.1.2 0 .3v.2c0 .3-.1.4-.4.6 0 1.7-.6 4-1.8 5.5-1.2 1.5-2.2 2.1-4 2.7l-.3.1-.2-.3c-.4-.9-.4-3 .1-4.2 0-.5-.3-1.1-.5-1.6-.1-.3-.2-.5-.3-.8-.5-.2-.7-.5-.8-.8-.2-.3-.3-.5-.7-.4-.1.2-.3.6-.8.7-.1.3-.1.6-.2.9 0 .4-.1.9-.3 1.3q0 .1.1.2v.3c-.4 1.3-.3 3.1-.1 5.2v.4c.1.1.2.2.3.2l.5.4.1.1-.1.1-.4.1c.2.3.3.6.5.9.3.6.5 1 1 1.2.2 0 .4.1.5.3h1.1c.3 0 .7 0 1.2.1 2.5-1.2 3.9-1.8 5-3.9l.1-.2h.3c.1 0 .1-.1.1-.1v-.6h.1l.5.2c.1-.1.2-.3.2-.4.1-.2.2-.4.4-.6.3-.6.7-1.5 1.2-2.3v-.2c.1-.7.1-1.4.4-2.2-.1-.6-.2-.9-.4-1.3-.3-.7-.5-1.1-.6-1.8m-29.2 12c.3.2.4.4.4.6 0 .1.1.2.1.2l.3.1v.3c0 .3.4.6.8.9.2.1.4.3.5.4l.5-.3.1.5s.2 0 .2.1c.1 0 .2 0 .3.1h.6c.6 0 1.1-.2 1.7-.3.5-.1 1.2-.3 1.9-.4l.1-.1.3-.3.6-.4v.5c.4-.1.8-.3 1.2-.4 1.9-.7 3.7-1.2 4.9-2.5.1-.7 0-1.1-.2-1.5h-.2l-.5.6-.1-.8c0-.2-.1-.2-.4-.4-.2-.1-.4-.2-.6-.4-.4.1-.8.3-1.2.5-.7.3-1.4.6-2.2.6-.3.2-.5.2-.8.3-.3.1-.6.2-.9.4l-.1.1h-.2c-.2 0-.4.1-.6.2-.3.1-.6.3-.9.3s-.6-.1-.8-.3l-.3-.2.3-.3c1-.9 2.2-1.8 3.3-2.6 1.5-1.1 3.2-2.3 4.4-3.7 0 0 0-.1-.1-.1.2-.3.6-.5.8-.8 1.4-.9 3.2-2 2.5-4.1-.5-.1-.8-.4-.8-1-.8-.7-1.8-.8-2.8-.4-1.4-.2-2.7.1-4 .1-.6-.1-1.2-.2-1.7-.2-.6 0-1.3.1-2 .3h-.2c-.1 0-.2 0-.4-.1-.1 0-.1.1-.2.1l-.6.3c-.4 1.3.2 3 1.4 3.7.7-.1 1.2-.1 1.8-.2.6-.1 1.7-.2 2.5-.3l.8-.1-.6.6c-.1.4-.7.7-.9.8l-.2.2c0 .1 0 .2-.1.3-.1.1-.2.1-.3.1h-.1c-.6.6-1.4 1.1-2.2 1.6-.9.6-1.9 1.2-2.4 1.9l-.1.1h-.1c-.3.1-.5.3-.9.6-.3.3-.6.6-1 .7-.5 1.2-.9 2.3-.6 4.1"/></g></g><path class="cls-19" d="M524.1 39.1h6l.9-4.4h-7v-5.5c0-2.7.9-4 2.7-4 1.4 0 2.3.9 2.4 3.5h5l.2-6.1c-1.8-.8-5.5-1.3-7.8-1.3-6.6 0-10.9 3.1-10.9 9.2v4.2l-3.5 1.4V39h3.5v18.4c0 3.3-.6 4-3.5 4V64h16.7v-2.6c-4-.1-4.6-.8-4.6-4V39.1h-.1zm-18.3-4.8h-1.4l-10.6 2v2.5c2.8.1 3.5.7 3.5 4.9v13.4c-1.7 1.4-3.2 2.1-5.2 2.1-2.7 0-3.7-1.6-3.7-4.7V34.3H487l-10.6 2v2.5c2.8.1 3.4.7 3.4 4.9v12.9c0 5.7 3.3 8.2 8.2 8.2 4.4 0 7.5-1.9 9.8-4.7.2 2.4 1.2 4 1.6 4.7h.9l9.2-2.1v-2.4c-2.9-.2-3.6-.7-3.6-4.9V34.3h-.1zm-41.6 7c-.1-3.8-1.4-6.6-1.8-7.4h-.9l-9.3 2.3v2.5c2.9.1 3.5.7 3.5 4.9v13.7c0 3.3-.6 4-3.5 4v2.6h16.7v-2.6c-3.9-.1-4.6-.8-4.6-4v-9c0-4.5 1.2-5.9 5.5-5.9 1.4 0 2.1.2 3.2.5l1.6-8.7c-.5-.2-1.3-.3-2.1-.3-3.2.1-6.9 2.5-8.3 7.4m-26.8 23.5c8.1 0 12.7-3.6 12.7-9.8 0-5.3-3.2-8.3-8.9-9.6l-4.2-1c-2.4-.5-3.4-1.4-3.4-3.3 0-2.3 1.5-3.4 4.2-3.4 2.9 0 4.9 1.2 5.4 4.4h5.3V36c-1.6-.7-4.8-2.1-10-2.1-6.3 0-11.6 3.2-11.6 9.8 0 5 2.8 8 7.6 9l4.4.9c2.7.6 4 1.6 4 4s-2 3.6-4.8 3.6c-3.2 0-5.3-1.1-5.7-5.1h-5.7v6.2c1.6.9 4.6 2.5 10.7 2.5m-13.7-30.1h-7c0-2.9.2-6.4.5-8.5l-6 .8c-1.4 2.2-2.3 5-2.7 7.6l-3.9 1.6v2.9h3.5v17.4c0 6.3 2.9 8.3 8.2 8.3 3.2 0 5.7-.7 7.8-2.1l-.9-3c-1.3.5-2.3.7-3.3.7-2.9 0-3.3-1.6-3.3-5.8V39.1h6l1.1-4.4zm-41-7.3c0-3-.5-4.8-1-5.7h-.9l-10.4 1.6v2.5c2.9.1 3.7.7 3.7 4.9v26.7c0 3.3-.6 4-3.5 4V64h15.6v-2.6c-3-.1-3.5-.8-3.5-3.9V42.3c1.5-1.2 3.2-2.2 5.8-2.2 2.4 0 3.8 1.2 3.8 4.7v12.8c0 3.1-.5 3.9-3.5 3.9v2.6h15.5v-2.6c-2.8-.1-3.5-.8-3.5-4V42.7c0-5.9-3.6-8.7-8.3-8.7s-7.3 2-9.9 4.8V27.4h.1zm-15.1 8.9c-2-1.3-4.9-2.3-9.5-2.3-8 0-14.8 5.5-14.8 15.9s6.3 14.9 14.1 14.9c4.4 0 8.3-1.6 11-4.7l-1.6-2.2c-2.4 1.4-4.1 2.1-6.8 2.1-4.3 0-7.8-2.8-7.8-11.4s3.2-11 5.9-11c2.4 0 2.8 1.5 3.1 5.1h6.4v-6.4zm-37.8 13.8l-.2 7.3c-1 1.3-2.9 2.1-4.4 2.1-2.2 0-3.5-1-3.5-4.3 0-3.5 2.1-5.2 6-5.2h2.1v.1zm8.5 5.3c0-5.3.2-10 .2-11.8 0-6.8-4.6-9.7-11.3-9.7-4.7 0-9.4 1.4-12.5 3.2V43h6.3c.4-3.1 1.3-5.3 4.6-5.3 3.1 0 4.2 1.9 4.2 6.3v2.7c-.8-.1-2.1-.1-2.8-.1-9.1 0-14.2 2.8-14.2 9.6 0 5.9 4 8.5 9.2 8.5 4.6 0 7-2.4 8-4.5.5 2.4 2.4 4 5.9 4 2.5 0 4.7-.6 5.9-1.4v-2.5c-2.9.1-3.5-.5-3.5-4.9m-30.8-12.7c0-5.9-3.6-8.7-8.4-8.7-4.5 0-7.6 2.3-10 5.1-.2-2.3-1.3-4.6-1.7-5.2h-.9l-9.3 2.3v2.5c2.9.1 3.5.7 3.5 4.9v13.7c0 3.3-.6 4-3.5 4v2.6h15.6v-2.6c-3-.1-3.5-.8-3.5-3.9V42.3c1.5-1.2 3.2-2.2 5.8-2.2 2.4 0 3.8 1.2 3.8 4.7v12.8c0 3.1-.5 3.9-3.5 3.9v2.6h15.5v-2.6c-2.8-.1-3.4-.8-3.4-4V42.7zm-42.6-1.4c-.1-3.8-1.4-6.6-1.8-7.4h-.9l-9.3 2.3v2.5c2.9.1 3.5.7 3.5 4.9v13.7c0 3.3-.6 4-3.5 4v2.6h16.7v-2.6c-3.9-.1-4.6-.8-4.6-4v-9c0-4.5 1.2-5.9 5.5-5.9 1.4 0 2.1.2 3.2.5l1.6-8.7c-.5-.2-1.3-.3-2.1-.3-3.2.1-6.9 2.5-8.3 7.4m-27.1-3.8c3 0 4.2 2.2 4.2 9.2h-9c.4-7 1.9-9.2 4.8-9.2m3.1 22.3c-5.5 0-7.7-2.7-8-9.2h17.5v-2.5c0-8.8-3.7-14.2-12.8-14.2-8.4 0-14 5.6-14 15.4s5.3 15.5 14.2 15.5c5.1 0 8.9-1.6 12.1-4.6l-1.4-2.4c-2.4 1.3-5.1 2-7.6 2m-18.4-25.1h-7c0-2.9.2-6.4.5-8.5l-6 .8c-1.4 2.2-2.3 5-2.7 7.6l-3.9 1.6v2.9h3.5v17.4c0 6.3 2.9 8.3 8.2 8.3 3.2 0 5.7-.7 7.8-2.1l-.9-3c-1.3.5-2.3.7-3.3.7-2.9 0-3.3-1.6-3.3-5.8V39.1h6l1.1-4.4zm-21.1 0h-7c0-2.9.2-6.4.5-8.5l-6 .8c-1.4 2.2-2.3 5-2.7 7.6l-3.9 1.6v2.9h3.5v17.4c0 6.3 2.9 8.3 8.2 8.3 3.2 0 5.7-.7 7.8-2.1l-.9-3c-1.3.5-2.3.7-3.3.7-2.9 0-3.3-1.6-3.3-5.8V39.1h6l1.1-4.4zm-22.6-8.1c0-2.8-2.2-5-5-5s-5.2 2.3-5.2 5 2.3 5.1 5.1 5.1 5.1-2.3 5.1-5.1m3 37.5v-2.6c-3-.1-3.5-.8-3.5-4V34.3H177l-10.8 2v2.5c2.9.1 3.5.7 3.5 4.9v13.7c0 3.3-.6 4-3.5 4V64h15.6v.1zM161.2 24h-14.9l-5.5 20.1c-.8 2.9-1.3 6.5-1.6 7.8h-.2c-.2-1.4-.7-5.1-1.6-7.8L131.3 24h-14.9v2.7c4.2.2 4.3 1.6 4.2 4.4L118.8 57c-.2 3.5-.8 4.4-4 4.6v2.6h12.5v-2.6c-3.5 0-3.9-1-3.7-4.2l1-17.8c.2-2.8.3-6.5.3-8h.3c.2 1.4.9 5.4 1.8 8.2l7.6 24.4h5.4l7.2-25.9c.6-2.2 1.2-5.5 1.4-6.6h.3V33c0 1.5.1 4.3.2 5.9l1.6 18.6c.3 3.1-.1 4-3.9 4.2v2.6h16.8v-2.6c-3.2-.1-3.7-1.2-4-4.4l-2.3-26c-.3-3 .1-4.2 4.2-4.4V24h-.3z"/></g></svg>