<svg xmlns="http://www.w3.org/2000/svg" width="48" height="48" viewBox="0 0 48 48"><title>Untitled-4</title><path d="M24,19.73A4.27,4.27,0,1,1,19.73,24,4.27,4.27,0,0,1,24,19.73Zm0-2.3A6.57,6.57,0,1,0,30.57,24,6.57,6.57,0,0,0,24,17.43Zm6.83-1.8a1.54,1.54,0,1,0,1.54,1.54,1.54,1.54,0,0,0-1.54-1.54Zm-8-2.12H24c3.42,0,3.82,0,5.17.07a7.32,7.32,0,0,1,2.38.44A4.27,4.27,0,0,1,34,16.45a7.32,7.32,0,0,1,.44,2.38c.06,1.35.07,1.75.07,5.17s0,3.82-.07,5.17A7.24,7.24,0,0,1,34,31.54,3.83,3.83,0,0,1,33,33a3.91,3.91,0,0,1-1.47,1,6.8,6.8,0,0,1-2.38.44c-1.35.06-1.75.08-5.17.08s-3.82,0-5.17-.08A6.8,6.8,0,0,1,16.45,34,3.91,3.91,0,0,1,15,33a3.83,3.83,0,0,1-1-1.47,7.3,7.3,0,0,1-.44-2.37c-.06-1.35-.07-1.76-.07-5.18s0-3.82.07-5.17A7.3,7.3,0,0,1,14,16.45,4,4,0,0,1,15,15a4,4,0,0,1,1.47-1,6.8,6.8,0,0,1,2.38-.44c1.18-.06,1.64-.07,4-.08ZM24,11.2c-3.48,0-3.91,0-5.28.08a9.46,9.46,0,0,0-3.1.59,6.57,6.57,0,0,0-3.75,3.75,9.21,9.21,0,0,0-.59,3.1c-.06,1.37-.08,1.8-.08,5.28s0,3.91.08,5.28a9.46,9.46,0,0,0,.59,3.1,6.59,6.59,0,0,0,3.74,3.75,9.59,9.59,0,0,0,3.11.59c1.37.06,1.8.08,5.28.08s3.91,0,5.28-.08a9.46,9.46,0,0,0,3.1-.59,6.57,6.57,0,0,0,3.75-3.75,9.46,9.46,0,0,0,.59-3.1c.06-1.37.08-1.8.08-5.28s0-3.91-.08-5.28a9.46,9.46,0,0,0-.59-3.1,6.57,6.57,0,0,0-3.75-3.75,9.47,9.47,0,0,0-3.11-.59c-1.36-.06-1.8-.08-5.27-.08Z" fill="#ffffff"/></svg>