<svg xmlns="http://www.w3.org/2000/svg" width="48" height="48" viewBox="0 0 48 48"><title>Untitled-4</title><path d="M23.66,19.5l.05.83-.83-.1a13.67,13.67,0,0,1-8-3.93l-1.1-1.1-.29.81a4.91,4.91,0,0,0,1,5c.67.71.52.81-.64.39a1.92,1.92,0,0,0-.78-.19,6,6,0,0,0,.6,2.27A5.44,5.44,0,0,0,16,25.67l.82.39-1,0c-.94,0-1,0-.87.37a5.07,5.07,0,0,0,3.13,2.78l1.05.36-.91.54a9.39,9.39,0,0,1-4.5,1.25,5,5,0,0,0-1.38.14A12.7,12.7,0,0,0,15.62,33a14.21,14.21,0,0,0,11-1.25,14.79,14.79,0,0,0,5.59-6.58,17.48,17.48,0,0,0,1.14-5.08c0-.78.05-.89,1-1.82A11,11,0,0,0,35.53,17c.17-.32.15-.32-.7,0-1.43.51-1.63.44-.93-.32a4.81,4.81,0,0,0,1.15-1.81c0-.05-.26,0-.54.18a8.79,8.79,0,0,1-1.48.58l-.9.29-.83-.56a7.08,7.08,0,0,0-1.42-.75,5.83,5.83,0,0,0-2.94.07A4.86,4.86,0,0,0,23.66,19.5Z" fill="#ffffff"/></svg>